<svg id="apple" xmlns="http://www.w3.org/2000/svg" width="137.567" height="47.056" viewBox="0 0 137.567 47.056">
  <path id="Path_30" data-name="Path 30" d="M31.973,213.59a10.628,10.628,0,0,1,5.086-8.952,10.994,10.994,0,0,0-8.606-4.666c-3.661-.375-7.147,2.157-9.009,2.157s-4.729-2.106-7.766-2.044a11.522,11.522,0,0,0-9.741,5.9c-4.144,7.187-1.056,17.858,2.992,23.7,1.981,2.855,4.331,6.074,7.431,5.955,2.986-.119,4.11-1.93,7.709-1.93s4.615,1.93,7.766,1.873c3.207-.062,5.239-2.918,7.2-5.784a26.231,26.231,0,0,0,3.253-6.7,10.38,10.38,0,0,1-6.318-9.508" transform="translate(0.027 -188.584)" fill="#4d4d4d"/>
  <path id="Path_31" data-name="Path 31" d="M342.569,7.516A10.365,10.365,0,0,0,345.021,0a10.538,10.538,0,0,0-6.931,3.571,9.83,9.83,0,0,0-2.492,7.277,8.731,8.731,0,0,0,6.971-3.332m26.68,23.342-2.725,8.259h-3.5l8.918-26.248h4.087l8.952,26.248h-3.622l-2.8-8.259Zm8.606-2.651-2.566-7.556c-.585-1.714-.971-3.27-1.362-4.791h-.074c-.392,1.555-.817,3.15-1.323,4.751l-2.566,7.59Zm9.781-1.788c0-2.413-.074-4.365-.159-6.153h3.077l.159,3.236h.074a7.408,7.408,0,0,1,6.7-3.661c4.558,0,7.981,3.854,7.981,9.582,0,6.778-4.127,10.121-8.566,10.121a6.61,6.61,0,0,1-5.8-2.957h-.074V46.826h-3.389Zm3.383,5.024a7.107,7.107,0,0,0,.159,1.4,5.293,5.293,0,0,0,5.143,4.013c3.622,0,5.728-2.957,5.728-7.283,0-3.781-1.987-7-5.609-7a5.482,5.482,0,0,0-5.183,4.246,5.451,5.451,0,0,0-.233,1.4l-.006,3.224Zm17.989-5.024c0-2.413-.074-4.365-.159-6.153h3.077l.159,3.236h.074a7.408,7.408,0,0,1,6.7-3.661c4.558,0,7.981,3.854,7.981,9.582,0,6.778-4.127,10.121-8.566,10.121a6.611,6.611,0,0,1-5.8-2.957H412.4V46.826h-3.389Zm3.389,5.024a7.107,7.107,0,0,0,.159,1.4,5.293,5.293,0,0,0,5.143,4.013c3.622,0,5.728-2.957,5.728-7.283,0-3.781-1.987-7-5.608-7a5.482,5.482,0,0,0-5.183,4.246,5.449,5.449,0,0,0-.233,1.4l-.006,3.224Zm17.989-19.976h3.429V39.112h-3.429ZM440.7,30.313c.074,4.632,3.037,6.545,6.46,6.545a12.391,12.391,0,0,0,5.217-.971l.585,2.452a15.242,15.242,0,0,1-6.267,1.169c-5.8,0-9.27-3.815-9.27-9.5s3.349-10.167,8.838-10.167c6.153,0,7.788,5.41,7.788,8.878a11.624,11.624,0,0,1-.119,1.6H440.7Zm10.047-2.452c.04-2.18-.9-5.569-4.751-5.569-3.468,0-4.984,3.2-5.256,5.569Z" transform="translate(-316.489)" fill="#4d4d4d"/>
</svg>
