<svg xmlns="http://www.w3.org/2000/svg" width="119.681" height="43.437" viewBox="0 0 119.681 43.437">
  <path id="aws" d="M33.726,23.01a4.639,4.639,0,0,0,.439,2.149A11.409,11.409,0,0,0,35.441,26.9a.78.78,0,0,1,.279.554c0,.242-.239.484-.758.726L32.454,29.2a2.8,2.8,0,0,1-1.037.218,2.463,2.463,0,0,1-1.192-.339,9.467,9.467,0,0,1-1.431-1.135,18.248,18.248,0,0,1-1.237-1.425,19.6,19.6,0,0,1-11.7,3.332A15.589,15.589,0,0,1,7.894,28.11a5.258,5.258,0,0,1-2.942-4.64c0-2.052,1.192-3.723,3.62-4.976s5.65-1.886,9.749-1.886c1.356,0,2.748.073,4.219.194s2.992.315,4.578.533V15.571a4.148,4.148,0,0,0-1.87-3.865c-1.272-.751-3.421-1.111-6.483-1.111a29.315,29.315,0,0,0-4.3.312c-1.471.218-2.907.484-4.3.823-.454.123-.92.228-1.4.315a3.879,3.879,0,0,1-.633.07c-.559,0-.838-.242-.838-.748V10.184a1.064,1.064,0,0,1,.279-.847,3.318,3.318,0,0,1,1.117-.505A33.5,33.5,0,0,1,13.7,7.741a39.119,39.119,0,0,1,6.213-.457c4.737,0,8.2.654,10.427,1.958a6.468,6.468,0,0,1,3.3,5.941V23.01ZM17.569,26.684a20.578,20.578,0,0,0,4.1-.436,10.45,10.45,0,0,0,3.78-1.544,3.778,3.778,0,0,0,1.356-1.55,5.558,5.558,0,0,0,.4-2.1V20.041q-1.812-.268-3.665-.412c-1.24-.1-2.49-.144-3.74-.145a13.808,13.808,0,0,0-5.934.968,3,3,0,0,0-1.945,2.775,2.759,2.759,0,0,0,1.471,2.56A7.857,7.857,0,0,0,17.569,26.684Zm31.965,2.609a3.348,3.348,0,0,1-1.516-.242,2.012,2.012,0,0,1-.838-.941L37.83,9.433a2.9,2.9,0,0,1-.359-.968c0-.387.319-.605.952-.605h3.9a3.313,3.313,0,0,1,1.546.242,1.9,1.9,0,0,1,.8.944l6.692,15.992L57.572,9.046a1.65,1.65,0,0,1,.753-.944,4.2,4.2,0,0,1,1.6-.242H63.1a3.679,3.679,0,0,1,1.6.242,1.563,1.563,0,0,1,.753.944L71.74,25.232,78.626,9.046a2.051,2.051,0,0,1,.8-.944,3.962,3.962,0,0,1,1.551-.242H84.68c.633,0,1,.2,1,.605a1.552,1.552,0,0,1-.085.387,2.5,2.5,0,0,1-.279.605l-9.59,18.674a1.886,1.886,0,0,1-.838.941,3.875,3.875,0,0,1-1.511.242H69.95a3.662,3.662,0,0,1-1.6-.242,1.614,1.614,0,0,1-.748-.968l-6.174-15.58L55.3,28.08a1.8,1.8,0,0,1-.748.968,3.781,3.781,0,0,1-1.6.242Zm51.144.651a43.082,43.082,0,0,1-6.129-.433,26.677,26.677,0,0,1-4.578-.968,2.733,2.733,0,0,1-1.232-.675,1.168,1.168,0,0,1-.239-.678V25.958c0-.505.319-.748.913-.748a3.613,3.613,0,0,1,.718.073c.239.048.6.145,1,.242a32.324,32.324,0,0,0,4.378.844,38.815,38.815,0,0,0,4.737.291,16.564,16.564,0,0,0,5.81-.8c1.319-.484,2.109-1.359,2.07-2.294a1.972,1.972,0,0,0-1.072-1.692,13.18,13.18,0,0,0-4.024-1.256l-5.77-1.09a14.407,14.407,0,0,1-6.368-2.461,4.585,4.585,0,0,1-1.995-3.5,3.848,3.848,0,0,1,1.077-2.681A8.65,8.65,0,0,1,92.839,8.9a16.717,16.717,0,0,1,4.139-1.256,27.991,27.991,0,0,1,5.017-.412c.873,0,1.79.024,2.668.1.913.073,1.745.169,2.583.266.8.121,1.556.242,2.269.384a12.23,12.23,0,0,1,1.676.436,3.593,3.593,0,0,1,1.2.605.957.957,0,0,1,.354.8v1.135c0,.508-.319.775-.918.775a6.2,6.2,0,0,1-1.511-.291,28.679,28.679,0,0,0-7.64-.941,15.986,15.986,0,0,0-5.3.675c-1.237.46-1.87,1.159-1.87,2.149a2,2,0,0,0,1.2,1.716,15.62,15.62,0,0,0,4.373,1.332l5.655,1.083a14.616,14.616,0,0,1,6.169,2.321,4.281,4.281,0,0,1,1.83,3.381,4.338,4.338,0,0,1-1.032,2.8,8.741,8.741,0,0,1-2.907,2.128,17.106,17.106,0,0,1-4.418,1.353,30.668,30.668,0,0,1-5.695.505ZM108.2,41.687c-13.1,5.871-32.125,8.986-48.481,8.986-22.929,0-43.584-5.145-59.193-13.7C-.7,36.3.409,35.379,1.885,35.912c16.875,5.941,37.695,9.543,59.228,9.543a186.415,186.415,0,0,0,45.18-5.605C108.482,39.244,110.352,40.718,108.2,41.687Zm5.456-3.771c-1.676-1.3-11.071-.626-15.329-.312-1.272.1-1.471-.581-.314-1.09,7.48-3.187,19.782-2.27,21.214-1.208,1.431,1.09-.4,8.553-7.405,12.127-1.072.557-2.109.266-1.631-.457,1.6-2.391,5.136-7.778,3.466-9.061Z" transform="translate(0 -7.236)" fill="#4d4d4d"/>
</svg>
