<svg xmlns="http://www.w3.org/2000/svg" width="68.77" height="48.012" viewBox="0 0 68.77 48.012">
  <g id="card-sharp" transform="translate(-2.25 -5.625)">
    <path id="Path_8" data-name="Path 8" d="M2.25,45.389a2.456,2.456,0,0,0,2.456,2.456H68.563a2.456,2.456,0,0,0,2.456-2.456V15.609H2.25ZM12.382,24.206a1.229,1.229,0,0,1,1.229-1.229H27.734a1.229,1.229,0,0,1,1.229,1.229v9.824a1.229,1.229,0,0,1-1.229,1.229H13.611a1.229,1.229,0,0,1-1.229-1.229Z" transform="translate(0 5.792)" fill="#80f5d4"/>
    <path id="Path_9" data-name="Path 9" d="M68.563,5.625H4.706A2.456,2.456,0,0,0,2.25,8.081V18.213H71.02V8.081A2.456,2.456,0,0,0,68.563,5.625Z" transform="translate(0 0)" fill="#80f5d4"/>
  </g>
</svg>
