<svg id="noun-contact-2674829" xmlns="http://www.w3.org/2000/svg" width="79.377" height="79.377" viewBox="0 0 79.377 79.377">
  <path id="Path_1707" data-name="Path 1707" d="M282.646,43.96h15.875a2.646,2.646,0,0,0,2.646-2.646V38.668a10.582,10.582,0,0,0-4.287-8.467,7.938,7.938,0,1,0-12.594,0A10.582,10.582,0,0,0,280,38.668v2.646a2.646,2.646,0,0,0,2.646,2.646Zm2.646-5.292a5.292,5.292,0,1,1,10.584,0Zm2.646-13.23a2.646,2.646,0,1,1,.775,1.871A2.646,2.646,0,0,1,287.938,25.438Z" transform="translate(-250.895 -17.501)" fill="#80f5d4"/>
  <path id="Path_1708" data-name="Path 1708" d="M296.883,380.2a7.938,7.938,0,1,0-12.594,0A10.582,10.582,0,0,0,280,388.668v2.646a2.646,2.646,0,0,0,2.646,2.646h15.875a2.646,2.646,0,0,0,2.646-2.646v-2.646A10.582,10.582,0,0,0,296.883,380.2Zm-8.943-4.763a2.646,2.646,0,1,1,.775,1.871A2.647,2.647,0,0,1,287.94,375.438Zm-2.646,13.229a5.292,5.292,0,1,1,10.584,0Z" transform="translate(-250.897 -314.583)" fill="#80f5d4"/>
  <path id="Path_1709" data-name="Path 1709" d="M489.383,380.2a7.938,7.938,0,1,0-12.594,0,10.582,10.582,0,0,0-4.287,8.467v2.646a2.646,2.646,0,0,0,2.646,2.646h15.875a2.646,2.646,0,0,0,2.646-2.646v-2.646A10.582,10.582,0,0,0,489.383,380.2Zm-8.943-4.763a2.646,2.646,0,1,1,.775,1.871A2.647,2.647,0,0,1,480.44,375.438Zm-2.646,13.229a5.292,5.292,0,1,1,10.584,0Z" transform="translate(-414.292 -314.583)" fill="#80f5d4"/>
  <path id="Path_1710" data-name="Path 1710" d="M104.383,380.2a7.938,7.938,0,1,0-12.594,0,10.582,10.582,0,0,0-4.287,8.467v2.646a2.646,2.646,0,0,0,2.646,2.646h15.875a2.646,2.646,0,0,0,2.646-2.646v-2.646A10.582,10.582,0,0,0,104.383,380.2Zm-8.943-4.763a2.646,2.646,0,1,1,.775,1.871A2.647,2.647,0,0,1,95.44,375.438Zm-2.646,13.229a5.292,5.292,0,1,1,10.584,0Z" transform="translate(-87.502 -314.583)" fill="#80f5d4"/>
  <path id="Path_1711" data-name="Path 1711" d="M142.646,231.167a2.646,2.646,0,0,0,2.646-2.646V223.23H169.1v5.292a2.646,2.646,0,1,0,5.292,0V223.23H198.21v5.292a2.646,2.646,0,1,0,5.292,0v-7.938a2.646,2.646,0,0,0-2.646-2.646H174.4v-5.292a2.646,2.646,0,1,0-5.292,0v5.292H142.646A2.646,2.646,0,0,0,140,220.584v7.938a2.646,2.646,0,0,0,2.646,2.646Z" transform="translate(-132.063 -180.895)" fill="#80f5d4"/>
</svg>
