<svg id="development" xmlns="http://www.w3.org/2000/svg" width="79.377" height="79.377" viewBox="0 0 79.377 79.377">
  <path id="Path_1666" data-name="Path 1666" d="M19.259,7.92v11.34H7.92V7.92h11.34M2.25,2.25V24.929H24.929V2.25Z" transform="translate(-2.25 -2.25)" fill="#80f5d4"/>
  <path id="Path_1667" data-name="Path 1667" d="M30.509,11.295v11.34H19.17V11.295h11.34M13.5,5.625V28.3H36.179V5.625Z" transform="translate(14.849 2.88)" fill="#80f5d4"/>
  <path id="Path_1668" data-name="Path 1668" d="M19.259,21.42v11.34H7.92V21.42h11.34M2.25,15.75V38.429H24.929V15.75Z" transform="translate(-2.25 18.269)" fill="#80f5d4"/>
  <path id="Path_1669" data-name="Path 1669" d="M45.269,11.25V28.259H28.259V45.269H11.25V67.948h56.7V11.25ZM33.929,33.929h11.34v11.34H33.929Zm-5.67,28.349H16.92V50.939h11.34Zm17.009,0H33.929V50.939h11.34Zm17.009,0H50.939V50.939h11.34Zm0-17.009H50.939V33.929h11.34ZM50.939,28.259V16.92h11.34v11.34Z" transform="translate(11.429 11.429)" fill="#80f5d4"/>
</svg>
