<svg xmlns="http://www.w3.org/2000/svg" width="49.65" height="71.405" viewBox="0 0 49.65 71.405">
  <path id="lock-solid" d="M49.879,30.886V21.227A18.506,18.506,0,0,0,31.825,2.36,18.506,18.506,0,0,0,13.77,21.227v9.659H7V69.252a4.514,4.514,0,0,0,4.514,4.514H52.136a4.514,4.514,0,0,0,4.514-4.514V30.886Zm-15.8,23.087v6.251H29.568V53.77a5.416,5.416,0,1,1,4.514.2ZM45.366,30.886H18.284V21.227A13.992,13.992,0,0,1,31.825,6.874,13.992,13.992,0,0,1,45.366,21.227Z" transform="translate(-7 -2.36)" fill="#80f5d4"/>
</svg>
