<svg xmlns="http://www.w3.org/2000/svg" width="78.632" height="78.633" viewBox="0 0 78.632 78.633">
  <path id="Path_1715" data-name="Path 1715" d="M162.84,58.955c.869.189,1.722.419,2.561.686l4.289-7.428a2.941,2.941,0,0,1,4.005-1.074l5.449,3.147a2.941,2.941,0,0,1,1.074,4.005l-4.292,7.434q.978.893,1.872,1.872l7.434-4.292a2.941,2.941,0,0,1,4.005,1.074l3.147,5.449a2.941,2.941,0,0,1-1.074,4.005l-7.426,4.287q.4,1.256.684,2.562h8.577a2.941,2.941,0,0,1,2.932,2.932v6.294a2.941,2.941,0,0,1-2.932,2.932h-8.578c-.189.869-.419,1.722-.686,2.561l7.428,4.289a2.941,2.941,0,0,1,1.074,4.005l-3.147,5.449a2.941,2.941,0,0,1-4.005,1.074l-7.434-4.292q-.893.978-1.872,1.872l4.292,7.434a2.941,2.941,0,0,1-1.074,4.005l-5.449,3.147a2.941,2.941,0,0,1-4.005-1.074l-4.287-7.426q-1.256.4-2.562.684v8.577a2.941,2.941,0,0,1-2.932,2.932h-6.294a2.941,2.941,0,0,1-2.932-2.932v-8.578c-.869-.189-1.722-.419-2.561-.686l-4.289,7.428a2.941,2.941,0,0,1-4.005,1.074l-5.449-3.147a2.941,2.941,0,0,1-1.074-4.005L137.6,107.8q-.978-.893-1.872-1.872l-7.434,4.292a2.941,2.941,0,0,1-4.005-1.074l-3.147-5.449a2.941,2.941,0,0,1,1.074-4.005l7.426-4.287q-.4-1.256-.684-2.562h-8.577a2.941,2.941,0,0,1-2.932-2.932V83.614a2.941,2.941,0,0,1,2.932-2.932h8.577q.283-1.3.686-2.561l-7.428-4.289a2.941,2.941,0,0,1-1.074-4.005l3.147-5.449a2.941,2.941,0,0,1,4.005-1.074l7.434,4.292q.893-.978,1.872-1.871L133.3,58.29a2.941,2.941,0,0,1,1.074-4.005l5.449-3.147a2.941,2.941,0,0,1,4.005,1.074l4.289,7.428q1.256-.4,2.561-.686V50.376a2.941,2.941,0,0,1,2.932-2.932h6.294a2.941,2.941,0,0,1,2.932,2.932ZM156.761,67.6A19.165,19.165,0,1,1,137.6,86.762,19.165,19.165,0,0,1,156.761,67.6Z" transform="translate(-117.444 -47.444)" fill="#80f5d4" fill-rule="evenodd"/>
</svg>
