<svg id="microsoft" xmlns="http://www.w3.org/2000/svg" width="213.543" height="43.437" viewBox="0 0 213.543 43.437">
  <path id="Path_6" data-name="Path 6" d="M441.106,47.361V43.783h-4.664V38.22l-.157.046-4.38,1.277-.086.025v4.215H424.9V41.435a3.609,3.609,0,0,1,.762-2.488,2.755,2.755,0,0,1,2.137-.832,5.185,5.185,0,0,1,2.027.439l.172.073V34.86l-.081-.028a8.265,8.265,0,0,0-2.59-.33,7.9,7.9,0,0,0-3.674.841,6.145,6.145,0,0,0-2.521,2.375,6.814,6.814,0,0,0-.893,3.484v2.581H417v3.578h3.247V62.435H424.9V47.361h6.914V56.94c0,3.945,1.953,5.944,5.805,5.944a9.977,9.977,0,0,0,1.979-.209,5.66,5.66,0,0,0,1.442-.436l.061-.035V58.595l-.19.119a3.347,3.347,0,0,1-.937.39,3.723,3.723,0,0,1-.921.149,2.567,2.567,0,0,1-1.984-.689,3.579,3.579,0,0,1-.632-2.4V47.361Zm-34.52,11.892a5.063,5.063,0,0,1-3.966-1.588,6.528,6.528,0,0,1-1.425-4.484,6.781,6.781,0,0,1,1.426-4.6,4.978,4.978,0,0,1,3.928-1.613,4.906,4.906,0,0,1,3.825,1.542,6.648,6.648,0,0,1,1.4,4.565,7.075,7.075,0,0,1-1.314,4.622,4.783,4.783,0,0,1-3.869,1.558m.207-15.92a10.515,10.515,0,0,0-7.62,2.679,9.772,9.772,0,0,0-2.753,7.312,9.261,9.261,0,0,0,2.688,6.981,10.024,10.024,0,0,0,7.214,2.579,10.218,10.218,0,0,0,7.47-2.716,9.747,9.747,0,0,0,2.753-7.24A9.5,9.5,0,0,0,413.96,45.9a9.777,9.777,0,0,0-7.168-2.563m-17.89,0a8.714,8.714,0,0,0-5.4,1.59,4.991,4.991,0,0,0-2.1,4.138,5.552,5.552,0,0,0,.454,2.313,4.68,4.68,0,0,0,1.393,1.734,12.294,12.294,0,0,0,2.833,1.51,21.6,21.6,0,0,1,2.357,1.046,3.245,3.245,0,0,1,1.038.812,1.758,1.758,0,0,1,.289,1.057c0,1.253-.985,1.863-3.012,1.863a8.647,8.647,0,0,1-2.548-.444,9.762,9.762,0,0,1-2.61-1.261l-.194-.132v4.276l.071.032a11.969,11.969,0,0,0,2.471.727,13.886,13.886,0,0,0,2.639.291,9.262,9.262,0,0,0,5.7-1.6,5.086,5.086,0,0,0,2.123-4.236,4.728,4.728,0,0,0-1.142-3.2,9.849,9.849,0,0,0-3.88-2.354,10.177,10.177,0,0,1-2.765-1.369,1.867,1.867,0,0,1-.557-1.437,1.578,1.578,0,0,1,.707-1.329,3.294,3.294,0,0,1,1.984-.534,8.492,8.492,0,0,1,2.362.346,7.767,7.767,0,0,1,2.062.911l.19.124V44.147l-.073-.03a10.564,10.564,0,0,0-2.094-.557,13.4,13.4,0,0,0-2.3-.227m-19.657,15.92a5.063,5.063,0,0,1-3.966-1.588,6.527,6.527,0,0,1-1.424-4.484,6.78,6.78,0,0,1,1.426-4.6,4.975,4.975,0,0,1,3.927-1.613,4.906,4.906,0,0,1,3.824,1.542,6.647,6.647,0,0,1,1.4,4.565,7.076,7.076,0,0,1-1.314,4.622,4.782,4.782,0,0,1-3.87,1.558m.208-15.92a10.512,10.512,0,0,0-7.62,2.679,9.773,9.773,0,0,0-2.754,7.312,9.259,9.259,0,0,0,2.688,6.981,10.023,10.023,0,0,0,7.213,2.579,10.219,10.219,0,0,0,7.47-2.716,9.749,9.749,0,0,0,2.753-7.24,9.5,9.5,0,0,0-2.583-7.032,9.777,9.777,0,0,0-7.167-2.563M352,47.013v-3.23h-4.6V62.435H352V52.894a6.421,6.421,0,0,1,1.148-3.962,3.573,3.573,0,0,1,2.978-1.5,5.657,5.657,0,0,1,1.385.194,3.6,3.6,0,0,1,1.074.414l.193.134V43.751l-.075-.031a4.982,4.982,0,0,0-1.8-.261,4.863,4.863,0,0,0-3.08,1.052,5.94,5.94,0,0,0-1.772,2.5Zm-12.851-3.679a11.822,11.822,0,0,0-5.6,1.282,8.851,8.851,0,0,0-3.693,3.618,11.078,11.078,0,0,0-1.269,5.36,9.516,9.516,0,0,0,1.233,4.8,8.464,8.464,0,0,0,3.446,3.319,10.667,10.667,0,0,0,5.034,1.166,11.466,11.466,0,0,0,5.555-1.239l.061-.033v-4.02l-.194.135a8.816,8.816,0,0,1-2.253,1.118,7.107,7.107,0,0,1-2.207.407,5.822,5.822,0,0,1-4.31-1.6,6.049,6.049,0,0,1-1.59-4.436,6.276,6.276,0,0,1,1.658-4.553,5.781,5.781,0,0,1,4.319-1.7,7.635,7.635,0,0,1,4.384,1.453l.193.134V44.317l-.062-.033a7.855,7.855,0,0,0-2.13-.687,13.333,13.333,0,0,0-2.574-.263m-13.733.45h-4.6V62.435h4.6Zm-2.255-7.946a2.851,2.851,0,0,0-1.962.733,2.366,2.366,0,0,0-.822,1.829,2.3,2.3,0,0,0,.813,1.794,2.884,2.884,0,0,0,1.971.714,2.921,2.921,0,0,0,1.979-.714,2.292,2.292,0,0,0,.824-1.795,2.409,2.409,0,0,0-.8-1.81,2.821,2.821,0,0,0-2-.753m-11.49,6.57V62.435h4.7V36.409h-6.5L301.6,55.74l-8.023-19.332H286.81V62.435h4.416V42.405h.152l8.472,20.03h3.333l8.34-20.028h.152Z" transform="translate(-227.563 -27.711)" fill="#4d4d4d"/>
  <path id="Path_7" data-name="Path 7" d="M21.663,20.64H0V0H21.663Z" transform="translate(0 0)" fill="#4d4d4d"/>
  <path id="Path_8" data-name="Path 8" d="M137.45,20.64H115.788V0H137.45Z" transform="translate(-91.87 0)" fill="#4d4d4d"/>
  <path id="Path_9" data-name="Path 9" d="M21.662,136.468H0v-20.64H21.662Z" transform="translate(0 -93.031)" fill="#4d4d4d"/>
  <path id="Path_10" data-name="Path 10" d="M137.45,136.468H115.788v-20.64H137.45Z" transform="translate(-91.87 -93.031)" fill="#4d4d4d"/>
</svg>
