<svg xmlns="http://www.w3.org/2000/svg" width="63" height="63" viewBox="0 0 63 63">
  <g id="Group_523" data-name="Group 523" transform="translate(-1510 -2779)">
    <circle id="Ellipse_1" data-name="Ellipse 1" cx="31.5" cy="31.5" r="31.5" transform="translate(1510 2779)" fill="#80f5d4"/>
    <path id="money" d="M10.969,15.844a17.807,17.807,0,0,1,6.844,3,6.809,6.809,0,0,1,2.531,5.719,6.2,6.2,0,0,1-1.922,4.781,9.759,9.759,0,0,1-5.016,2.344V36h-6V31.688a10.183,10.183,0,0,1-5.2-2.625A7.437,7.437,0,0,1,0,24H4.406q.375,4.219,6,4.219,2.906,0,4.125-1.125a3.3,3.3,0,0,0,1.219-2.438,3.8,3.8,0,0,0-1.266-2.813A10.7,10.7,0,0,0,9.75,19.781Q.375,17.531.375,11.531A6.249,6.249,0,0,1,2.344,6.89,10.034,10.034,0,0,1,7.406,4.313V0h6V4.406a8.272,8.272,0,0,1,4.641,2.813A7.914,7.914,0,0,1,19.781,12H15.375q-.188-4.219-4.969-4.219A6.777,6.777,0,0,0,6.422,8.812a3.185,3.185,0,0,0-1.453,2.719,2.912,2.912,0,0,0,1.313,2.391,15.1,15.1,0,0,0,4.688,1.922Z" transform="translate(1531 2792.5)" fill="#fff"/>
  </g>
</svg>
