<svg xmlns="http://www.w3.org/2000/svg" width="87.619" height="87.618" viewBox="0 0 87.619 87.618">
  <path id="restart" d="M82.142,49.285H71.19A5.335,5.335,0,0,1,67.34,47.7a5.477,5.477,0,0,1,0-7.788,5.335,5.335,0,0,1,3.85-1.582H82.142a5.476,5.476,0,1,1,0,10.952ZM67.254,28.15a5.561,5.561,0,0,1-9.5-3.936,5.361,5.361,0,0,1,1.626-3.936l7.871-7.786a5.085,5.085,0,0,1,3.85-1.626,5.551,5.551,0,0,1,5.561,5.561,5.085,5.085,0,0,1-1.626,3.85ZM43.809,87.618a5.4,5.4,0,0,1-5.476-5.476V71.19a5.552,5.552,0,0,1,5.52-5.476A5.17,5.17,0,0,1,47.7,67.34a5.335,5.335,0,0,1,1.582,3.85V82.142a5.4,5.4,0,0,1-5.476,5.476ZM43.853,21.9a5.552,5.552,0,0,1-5.52-5.476V5.476a5.225,5.225,0,0,1,1.626-3.894,5.477,5.477,0,0,1,7.7,0,5.215,5.215,0,0,1,1.626,3.894V16.428A5.3,5.3,0,0,1,47.7,20.323,5.228,5.228,0,0,1,43.853,21.9ZM20.279,75.04a5.085,5.085,0,0,1-3.85,1.626A5.551,5.551,0,0,1,10.867,71.1a5.085,5.085,0,0,1,1.626-3.85l7.786-7.871a5.576,5.576,0,0,1,7.871,0,5.576,5.576,0,0,1,0,7.871Zm0-46.89-7.786-7.871a5.085,5.085,0,0,1-1.626-3.85,5.551,5.551,0,0,1,5.561-5.561,5.085,5.085,0,0,1,3.85,1.626l7.871,7.786a5.576,5.576,0,0,1,0,7.871,5.576,5.576,0,0,1-7.871,0Zm1.626,15.7a5.17,5.17,0,0,1-1.626,3.85,5.344,5.344,0,0,1-3.85,1.584H5.476A5.3,5.3,0,0,1,1.582,47.7a5.584,5.584,0,0,1,0-7.788,5.287,5.287,0,0,1,3.894-1.582H16.428a5.552,5.552,0,0,1,5.476,5.52Zm45.35,15.53,7.786,7.871a5.085,5.085,0,0,1,1.626,3.85A5.551,5.551,0,0,1,71.1,76.664a5.085,5.085,0,0,1-3.85-1.626l-7.871-7.786a5.566,5.566,0,0,1,7.871-7.871Z" fill="#80f5d4"/>
</svg>
