<svg xmlns="http://www.w3.org/2000/svg" width="63.418" height="63.419" viewBox="0 0 63.418 63.419">
  <path id="securityalt" d="M31.744,63.419a77.538,77.538,0,0,1-9.415-5.512Q18.116,55,14.958,52.333a28.726,28.726,0,0,1-5.542-6.316q-2.384-3.654-3.964-6.348a26.2,26.2,0,0,1-2.631-7.092q-1.051-4.4-1.61-7.216a60.721,60.721,0,0,1-.836-8.081Q.1,12.016.065,9.043T.033,0q0,1.61,4.645,2.786a46.243,46.243,0,0,0,11.21,1.176A46.243,46.243,0,0,0,27.1,2.786Q31.742,1.61,31.742,0q0,1.61,4.645,2.786A46.243,46.243,0,0,0,47.6,3.962a46.243,46.243,0,0,0,11.21-1.176Q63.451,1.61,63.451,0q0,6.069-.032,9.043t-.31,8.237a61.122,61.122,0,0,1-.836,8.081q-.557,2.818-1.61,7.216a26.2,26.2,0,0,1-2.633,7.09q-1.58,2.693-3.964,6.348a28.672,28.672,0,0,1-5.542,6.316q-3.158,2.661-7.371,5.574a77.233,77.233,0,0,1-9.415,5.512Zm0-55.491q0,1.61-3.5,2.786a26.466,26.466,0,0,1-8.392,1.176,39.515,39.515,0,0,1-6.627-.557A20.888,20.888,0,0,1,7.963,9.847q0,4.893.123,7.865t.589,7.09a31.941,31.941,0,0,0,1.393,6.782,46.565,46.565,0,0,0,2.663,6.008,22.967,22.967,0,0,0,4.243,5.821,52.011,52.011,0,0,0,6.225,5.14,55.389,55.389,0,0,0,8.547,4.955V7.928ZM31.744,0Z" transform="translate(-0.033)" fill="#80f5d4"/>
</svg>
