<svg xmlns="http://www.w3.org/2000/svg" width="25.522" height="24.34" viewBox="0 0 25.522 24.34">
  <path id="star" d="M25.521,9.432a1.108,1.108,0,0,1-.4.736L19.555,15.6l1.319,7.669a2.279,2.279,0,0,1,.016.307.9.9,0,0,1-.161.544.542.542,0,0,1-.469.223,1.238,1.238,0,0,1-.613-.184l-6.887-3.62-6.887,3.62a1.3,1.3,0,0,1-.613.184.557.557,0,0,1-.483-.223.908.908,0,0,1-.162-.544,2.507,2.507,0,0,1,.03-.307L5.966,15.6.384,10.169A1.168,1.168,0,0,1,0,9.432q0-.567.859-.705l7.7-1.119L12.009.629Q12.3,0,12.761,0t.751.629l3.451,6.979,7.7,1.119q.859.138.859.705Z" fill="#80f5d4"/>
</svg>
