<svg id="tesla" xmlns="http://www.w3.org/2000/svg" width="161.054" height="43.437" viewBox="0 0 161.054 43.437">
  <text id="TESLA-2" data-name="TESLA" transform="translate(43.054 28)" fill="#4d4d4d" font-size="37" font-family="Helvetica"><tspan x="0" y="0">TESLA</tspan></text>
  <path id="Icon_simple-tesla" data-name="Icon simple-tesla" d="M16.607,9.7l3.425-5.477A26.418,26.418,0,0,1,31.755,7.945a10.964,10.964,0,0,1-4.471,4.412c-.2-2.6-1.6-3.24-6.025-3.24L16.607,43.436,11.928,9.111c-4.4,0-5.8.641-6,3.243a10.9,10.9,0,0,1-4.469-4.4A26.416,26.416,0,0,1,13.182,4.235L16.607,9.7l-.006,0h.006Zm0-7.057A30.465,30.465,0,0,1,32.283,6.774a19.492,19.492,0,0,0,.93-2.525A36.186,36.186,0,0,0,16.607,0,36.123,36.123,0,0,0,0,4.251,24.961,24.961,0,0,0,.93,6.778,30.5,30.5,0,0,1,16.607,2.642v.005Z" transform="translate(0 0)" fill="#4d4d4d"/>
</svg>
