<svg id="twitter" xmlns="http://www.w3.org/2000/svg" width="20" height="17" viewBox="0 0 20 17">
  <path id="coolicon" d="M17.644,2.681a4.274,4.274,0,0,0,1.8-2.375,8,8,0,0,1-2.605,1.042A3.98,3.98,0,0,0,11.915.509,4.375,4.375,0,0,0,9.848,5.264,11.484,11.484,0,0,1,1.392.778,4.424,4.424,0,0,0,2.662,6.51,3.951,3.951,0,0,1,.8,5.972v.054A4.253,4.253,0,0,0,4.1,10.236a3.935,3.935,0,0,1-1.853.074,4.139,4.139,0,0,0,3.833,2.981A8.01,8.01,0,0,1,0,15.071,11.242,11.242,0,0,0,6.29,17a11.337,11.337,0,0,0,8.279-3.554,12.428,12.428,0,0,0,3.4-8.663q0-.279-.012-.555A8.562,8.562,0,0,0,20,2,7.92,7.92,0,0,1,17.644,2.681Z" fill="#fff"/>
</svg>
