<svg xmlns="http://www.w3.org/2000/svg" xmlns:xlink="http://www.w3.org/1999/xlink" width="268.429" height="287.68" viewBox="0 0 268.429 287.68">
  <defs>
    <radialGradient id="radial-gradient" cx="0.502" cy="0.313" r="0.811" gradientTransform="translate(0.211) scale(0.577 1)" gradientUnits="objectBoundingBox">
      <stop offset="0" stop-color="#03002d"/>
      <stop offset="0.16" stop-color="#403e60"/>
      <stop offset="0.326" stop-color="#797890"/>
      <stop offset="0.488" stop-color="#a9a8b7"/>
      <stop offset="0.64" stop-color="#ceced6"/>
      <stop offset="0.78" stop-color="#e9e8ec"/>
      <stop offset="0.904" stop-color="#f9f9fa"/>
      <stop offset="1" stop-color="#fff"/>
    </radialGradient>
    <linearGradient id="linear-gradient" x1="-0.247" y1="0.5" x2="1.034" y2="0.5" gradientUnits="objectBoundingBox">
      <stop offset="0" stop-color="#706ec4"/>
      <stop offset="0.022" stop-color="#6d6bc1"/>
      <stop offset="0.251" stop-color="#5651ac"/>
      <stop offset="0.486" stop-color="#463e9d"/>
      <stop offset="0.731" stop-color="#3c3393"/>
      <stop offset="1" stop-color="#393091"/>
    </linearGradient>
    <linearGradient id="linear-gradient-2" y1="0.5" x2="1" y2="0.5" gradientUnits="objectBoundingBox">
      <stop offset="0" stop-color="#42e8e0"/>
      <stop offset="0.151" stop-color="#42e3df"/>
      <stop offset="0.328" stop-color="#44d4de"/>
      <stop offset="0.52" stop-color="#48bddd"/>
      <stop offset="0.721" stop-color="#4d9bda"/>
      <stop offset="0.927" stop-color="#5471d8"/>
      <stop offset="1" stop-color="#5761d7"/>
    </linearGradient>
    <linearGradient id="linear-gradient-9" x1="-12.067" y1="40.904" x2="-11.601" y2="40.904" gradientUnits="objectBoundingBox">
      <stop offset="0" stop-color="#bcbeff"/>
      <stop offset="0.166" stop-color="#b5b8fc"/>
      <stop offset="0.396" stop-color="#a3a7f5"/>
      <stop offset="0.662" stop-color="#868ce9"/>
      <stop offset="0.955" stop-color="#5d67d9"/>
      <stop offset="1" stop-color="#5761d7"/>
    </linearGradient>
    <linearGradient id="linear-gradient-10" x1="-12.067" y1="40.904" x2="-11.601" y2="40.904" xlink:href="#linear-gradient"/>
    <linearGradient id="linear-gradient-11" x1="-12.191" y1="45.875" x2="-11.678" y2="45.875" xlink:href="#linear-gradient-9"/>
    <linearGradient id="linear-gradient-12" x1="-12.261" y1="45.875" x2="-11.337" y2="45.875" xlink:href="#linear-gradient"/>
    <linearGradient id="linear-gradient-13" x1="-12.19" y1="41.235" x2="-11.725" y2="41.235" xlink:href="#linear-gradient-9"/>
    <linearGradient id="linear-gradient-14" x1="-12.19" y1="41.235" x2="-11.725" y2="41.235" xlink:href="#linear-gradient"/>
    <linearGradient id="linear-gradient-15" x1="-12.314" y1="46.245" x2="-11.802" y2="46.245" xlink:href="#linear-gradient-9"/>
    <linearGradient id="linear-gradient-16" x1="-12.385" y1="46.245" x2="-11.461" y2="46.245" xlink:href="#linear-gradient"/>
    <linearGradient id="linear-gradient-17" x1="-12.314" y1="41.566" x2="-11.849" y2="41.566" xlink:href="#linear-gradient-9"/>
    <linearGradient id="linear-gradient-18" x1="-12.314" y1="41.566" x2="-11.849" y2="41.566" xlink:href="#linear-gradient"/>
    <linearGradient id="linear-gradient-19" x1="-12.438" y1="46.616" x2="-11.926" y2="46.616" xlink:href="#linear-gradient-9"/>
    <linearGradient id="linear-gradient-20" x1="-12.509" y1="46.616" x2="-11.584" y2="46.616" xlink:href="#linear-gradient"/>
    <linearGradient id="linear-gradient-21" x1="-12.438" y1="41.897" x2="-11.972" y2="41.897" xlink:href="#linear-gradient-9"/>
    <linearGradient id="linear-gradient-22" x1="-12.438" y1="41.897" x2="-11.972" y2="41.897" xlink:href="#linear-gradient"/>
    <linearGradient id="linear-gradient-23" x1="-12.561" y1="46.987" x2="-12.049" y2="46.987" xlink:href="#linear-gradient-9"/>
    <linearGradient id="linear-gradient-24" x1="-12.632" y1="46.987" x2="-11.708" y2="46.987" xlink:href="#linear-gradient"/>
  </defs>
  <g id="Group_524" data-name="Group 524" transform="translate(-726.629 -297.357)">
    <g id="Group_171" data-name="Group 171" transform="translate(726.629 427.798)">
      <g id="Group_162" data-name="Group 162" transform="translate(0.299)">
        <path id="Path_427" data-name="Path 427" d="M384.045,185.138a4.607,4.607,0,0,1-2.29-.691l-14.343-8.279.68-1.183,14.346,8.281a2,2,0,0,0,3.33-1.925v-3.46a3.323,3.323,0,0,1,5.384-3.108l3,1.73-.682,1.183-2.995-1.73a2,2,0,0,0-3.335,1.925v3.46a3.709,3.709,0,0,1-1.619,3.414A2.916,2.916,0,0,1,384.045,185.138Z" transform="translate(-261.408 -174.082)" fill="#42e8e0" style="mix-blend-mode: lighten;isolation: isolate"/>
        <path id="Path_428" data-name="Path 428" d="M381.584,186.554a4.612,4.612,0,0,1-2.29-.691l-14.344-8.281.682-1.183,14.343,8.281a1.995,1.995,0,0,0,3.33-1.922v-3.462a3.323,3.323,0,0,1,5.384-3.106l3,1.73-.682,1.183-2.995-1.73a2.463,2.463,0,0,0-2.4-.306,2.431,2.431,0,0,0-.934,2.228v3.462a3.709,3.709,0,0,1-1.619,3.414A2.916,2.916,0,0,1,381.584,186.554Z" transform="translate(-264.526 -172.288)" fill="#42e8e0" style="mix-blend-mode: lighten;isolation: isolate"/>
        <path id="Path_429" data-name="Path 429" d="M379.121,187.97a4.654,4.654,0,0,1-2.287-.689L362.49,179l.682-1.183,14.343,8.284a2,2,0,0,0,3.33-1.927v-3.457a3.326,3.326,0,0,1,5.384-3.113l3,1.734-.687,1.183-2.995-1.732a2,2,0,0,0-3.333,1.927v3.457a3.712,3.712,0,0,1-1.619,3.414A2.92,2.92,0,0,1,379.121,187.97Z" transform="translate(-267.645 -170.494)" fill="#42e8e0" style="mix-blend-mode: lighten;isolation: isolate"/>
        <path id="Path_430" data-name="Path 430" d="M376.662,189.385a4.613,4.613,0,0,1-2.29-.691l-14.343-8.279.682-1.183,14.344,8.281a2,2,0,0,0,3.332-1.925v-3.459a3.321,3.321,0,0,1,5.384-3.106l2.995,1.727-.682,1.183-2.995-1.73a2,2,0,0,0-3.335,1.925v3.459A3.709,3.709,0,0,1,378.136,189,2.917,2.917,0,0,1,376.662,189.385Z" transform="translate(-270.763 -168.702)" fill="#42e8e0" style="mix-blend-mode: lighten;isolation: isolate"/>
        <path id="Path_431" data-name="Path 431" d="M374.2,190.8a4.612,4.612,0,0,1-2.29-.691l-14.344-8.281.682-1.183,14.344,8.284A2,2,0,0,0,375.926,187v-3.459a3.321,3.321,0,0,1,5.384-3.106l2.995,1.727-.682,1.183-2.995-1.73a2,2,0,0,0-3.335,1.925V187a3.709,3.709,0,0,1-1.619,3.414A2.916,2.916,0,0,1,374.2,190.8Z" transform="translate(-273.881 -166.908)" fill="#42e8e0" style="mix-blend-mode: lighten;isolation: isolate"/>
        <path id="Path_432" data-name="Path 432" d="M371.738,192.216a4.661,4.661,0,0,1-2.287-.689l-14.343-8.284.682-1.183,14.343,8.284a2,2,0,0,0,3.333-1.927v-3.457a3.324,3.324,0,0,1,5.384-3.11l3,1.732-.687,1.183-2.995-1.732a2,2,0,0,0-3.332,1.927v3.457a3.712,3.712,0,0,1-1.619,3.414A2.92,2.92,0,0,1,371.738,192.216Z" transform="translate(-276.999 -165.112)" fill="#42e8e0" style="mix-blend-mode: lighten;isolation: isolate"/>
        <path id="Path_433" data-name="Path 433" d="M369.279,193.632a4.619,4.619,0,0,1-2.29-.691l-14.343-8.281.682-1.183,14.344,8.284A2,2,0,0,0,371,189.835v-3.459a3.321,3.321,0,0,1,5.382-3.106l3,1.727-.682,1.186-3-1.73a2,2,0,0,0-3.333,1.922v3.459a3.709,3.709,0,0,1-1.619,3.414A2.915,2.915,0,0,1,369.279,193.632Z" transform="translate(-280.117 -163.321)" fill="#42e8e0" style="mix-blend-mode: lighten;isolation: isolate"/>
        <path id="Path_434" data-name="Path 434" d="M366.818,195.048a4.662,4.662,0,0,1-2.29-.689l-14.343-8.284.682-1.183,14.343,8.284a2,2,0,0,0,3.333-1.925v-3.459a3.321,3.321,0,0,1,5.382-3.106l3,1.725-.682,1.188-3-1.732a2,2,0,0,0-3.333,1.925v3.459a3.705,3.705,0,0,1-1.619,3.412A2.919,2.919,0,0,1,366.818,195.048Z" transform="translate(-283.235 -161.527)" fill="#42e8e0" style="mix-blend-mode: lighten;isolation: isolate"/>
        <path id="Path_435" data-name="Path 435" d="M364.355,196.464a4.66,4.66,0,0,1-2.287-.689l-14.343-8.284.682-1.183,14.343,8.284a2,2,0,0,0,3.332-1.927v-3.457a3.324,3.324,0,0,1,5.382-3.11l3,1.732-.682,1.183-3-1.732a2,2,0,0,0-3.333,1.927v3.457a3.707,3.707,0,0,1-1.619,3.414A2.914,2.914,0,0,1,364.355,196.464Z" transform="translate(-286.353 -159.732)" fill="#42e8e0" style="mix-blend-mode: lighten;isolation: isolate"/>
        <path id="Path_436" data-name="Path 436" d="M361.9,197.879a4.619,4.619,0,0,1-2.29-.691l-14.343-8.281.682-1.183,14.343,8.284a2,2,0,0,0,3.333-1.925v-3.46A3.321,3.321,0,0,1,369,187.516l3,1.725-.682,1.188-3-1.732a2,2,0,0,0-3.333,1.925v3.46a3.708,3.708,0,0,1-1.616,3.414A2.925,2.925,0,0,1,361.9,197.879Z" transform="translate(-289.471 -157.939)" fill="#42e8e0" style="mix-blend-mode: lighten;isolation: isolate"/>
        <path id="Path_437" data-name="Path 437" d="M359.435,199.295a4.661,4.661,0,0,1-2.29-.689L342.8,190.322l.682-1.183,14.343,8.284a2,2,0,0,0,3.333-1.927v-3.457a3.321,3.321,0,0,1,5.382-3.106l2.995,1.728-.68,1.183-3-1.73a2,2,0,0,0-3.33,1.925V195.5a3.71,3.71,0,0,1-1.619,3.414A2.927,2.927,0,0,1,359.435,199.295Z" transform="translate(-292.59 -156.145)" fill="#42e8e0" style="mix-blend-mode: lighten;isolation: isolate"/>
        <path id="Path_438" data-name="Path 438" d="M356.975,200.708a4.619,4.619,0,0,1-2.29-.691l-14.346-8.279.682-1.181,14.346,8.279a2,2,0,0,0,3.333-1.925v-3.457a3.324,3.324,0,0,1,5.382-3.11l3,1.732-.685,1.183-3-1.732a2,2,0,0,0-3.33,1.927v3.457a3.708,3.708,0,0,1-1.616,3.414A2.925,2.925,0,0,1,356.975,200.708Z" transform="translate(-295.709 -154.35)" fill="#42e8e0" style="mix-blend-mode: lighten;isolation: isolate"/>
        <path id="Path_439" data-name="Path 439" d="M354.512,202.126a4.618,4.618,0,0,1-2.287-.691l-14.346-8.281.682-1.183,14.343,8.284a2,2,0,0,0,3.335-1.925v-3.459a3.321,3.321,0,0,1,5.382-3.106l2.995,1.727-.68,1.183-3-1.73a2,2,0,0,0-3.33,1.925v3.459a3.705,3.705,0,0,1-1.619,3.412A2.923,2.923,0,0,1,354.512,202.126Z" transform="translate(-298.827 -152.558)" fill="#42e8e0" style="mix-blend-mode: lighten;isolation: isolate"/>
        <path id="Path_440" data-name="Path 440" d="M352.051,203.542a4.637,4.637,0,0,1-2.287-.689l-14.346-8.284.682-1.181,14.346,8.281a2,2,0,0,0,3.333-1.927v-3.457a3.321,3.321,0,0,1,5.382-3.106l2.995,1.727-.68,1.183-3-1.73a2,2,0,0,0-3.33,1.925v3.457a3.707,3.707,0,0,1-1.619,3.414A2.923,2.923,0,0,1,352.051,203.542Z" transform="translate(-301.945 -150.764)" fill="#42e8e0" style="mix-blend-mode: lighten;isolation: isolate"/>
        <path id="Path_441" data-name="Path 441" d="M349.591,204.955a4.583,4.583,0,0,1-2.29-.691l-14.343-8.279.68-1.181,14.346,8.279a2,2,0,0,0,3.332-1.925V197.7a3.324,3.324,0,0,1,5.382-3.11l3,1.732-.687,1.183-2.995-1.732a2,2,0,0,0-3.33,1.927v3.457a3.712,3.712,0,0,1-1.619,3.414A2.925,2.925,0,0,1,349.591,204.955Z" transform="translate(-305.062 -148.97)" fill="#42e8e0" style="mix-blend-mode: lighten;isolation: isolate"/>
        <path id="Path_442" data-name="Path 442" d="M347.13,206.374a4.605,4.605,0,0,1-2.29-.691L330.5,197.4l.68-1.181,14.346,8.281a2,2,0,0,0,3.333-1.925v-3.46a3.321,3.321,0,0,1,5.382-3.106l3,1.73-.682,1.181-3-1.73a2,2,0,0,0-3.33,1.925v3.46a3.709,3.709,0,0,1-1.619,3.414A2.925,2.925,0,0,1,347.13,206.374Z" transform="translate(-308.18 -147.178)" fill="#42e8e0" style="mix-blend-mode: lighten;isolation: isolate"/>
        <path id="Path_443" data-name="Path 443" d="M344.669,207.79a4.624,4.624,0,0,1-2.29-.689l-14.344-8.284.68-1.181,14.346,8.281a2,2,0,0,0,3.333-1.927v-3.457a3.321,3.321,0,0,1,5.382-3.106l3,1.73-.682,1.181-2.995-1.73a2,2,0,0,0-3.332,1.925v3.457a3.707,3.707,0,0,1-1.619,3.414A2.921,2.921,0,0,1,344.669,207.79Z" transform="translate(-311.299 -145.384)" fill="#42e8e0" style="mix-blend-mode: lighten;isolation: isolate"/>
        <path id="Path_444" data-name="Path 444" d="M342.208,209.2a4.612,4.612,0,0,1-2.29-.691l-14.343-8.279.682-1.181L340.6,207.33a2,2,0,0,0,3.333-1.925v-3.457a3.324,3.324,0,0,1,5.382-3.11l3,1.732-.682,1.181-2.995-1.73a2,2,0,0,0-3.333,1.927v3.457a3.709,3.709,0,0,1-1.619,3.414A2.925,2.925,0,0,1,342.208,209.2Z" transform="translate(-314.417 -143.589)" fill="#42e8e0" style="mix-blend-mode: lighten;isolation: isolate"/>
        <path id="Path_445" data-name="Path 445" d="M339.747,210.62a4.589,4.589,0,0,1-2.29-.691l-14.343-8.281.682-1.181,14.343,8.281a2,2,0,0,0,3.33-1.925v-3.46a3.322,3.322,0,0,1,5.384-3.106l3,1.73-.682,1.181-2.995-1.73a2,2,0,0,0-3.335,1.925v3.46a3.707,3.707,0,0,1-1.619,3.414A2.894,2.894,0,0,1,339.747,210.62Z" transform="translate(-317.535 -141.796)" fill="#42e8e0" style="mix-blend-mode: lighten;isolation: isolate"/>
        <path id="Path_446" data-name="Path 446" d="M337.286,212.035a4.631,4.631,0,0,1-2.29-.689l-14.343-8.284.682-1.181,14.343,8.281a2,2,0,0,0,3.333-1.927v-3.457a3.321,3.321,0,0,1,5.384-3.106l2.995,1.727-.682,1.183-2.995-1.73a2,2,0,0,0-3.335,1.925v3.457a3.707,3.707,0,0,1-1.619,3.414A2.9,2.9,0,0,1,337.286,212.035Z" transform="translate(-320.653 -140.001)" fill="#42e8e0" style="mix-blend-mode: lighten;isolation: isolate"/>
      </g>
      <g id="Group_163" data-name="Group 163" transform="translate(135.688 0.263)">
        <path id="Path_447" data-name="Path 447" d="M390.483,185.254a2.928,2.928,0,0,1-1.478-.385,3.712,3.712,0,0,1-1.619-3.414V178a2,2,0,0,0-3.332-1.925l-2.995,1.73-.685-1.183,2.995-1.73A3.324,3.324,0,0,1,388.755,178v3.457a2,2,0,0,0,3.332,1.925l14.344-8.281.68,1.183-14.343,8.281A4.627,4.627,0,0,1,390.483,185.254Z" transform="translate(-380.374 -174.198)" fill="#42e8e0" style="mix-blend-mode: lighten;isolation: isolate"/>
        <path id="Path_448" data-name="Path 448" d="M392.938,186.669a2.917,2.917,0,0,1-1.474-.383,3.709,3.709,0,0,1-1.619-3.414v-3.459a2,2,0,0,0-3.33-1.925l-3,1.732-.68-1.186,3-1.73a3.322,3.322,0,0,1,5.382,3.108v3.459a2,2,0,0,0,3.333,1.925l14.343-8.281.68,1.183-14.343,8.279A4.606,4.606,0,0,1,392.938,186.669Z" transform="translate(-377.254 -172.406)" fill="#42e8e0" style="mix-blend-mode: lighten;isolation: isolate"/>
        <path id="Path_449" data-name="Path 449" d="M395.4,188.085a2.919,2.919,0,0,1-1.476-.383,3.71,3.71,0,0,1-1.619-3.414v-3.459a2,2,0,0,0-3.33-1.925l-3,1.732-.68-1.186,3-1.73a3.322,3.322,0,0,1,5.382,3.108v3.459a2,2,0,0,0,3.33,1.925l14.346-8.281.68,1.181-14.344,8.281A4.6,4.6,0,0,1,395.4,188.085Z" transform="translate(-374.136 -170.611)" fill="#42e8e0" style="mix-blend-mode: lighten;isolation: isolate"/>
        <path id="Path_450" data-name="Path 450" d="M397.863,189.5a2.921,2.921,0,0,1-1.476-.385,3.709,3.709,0,0,1-1.619-3.414v-3.457a2,2,0,0,0-3.332-1.925l-3,1.73-.682-1.183,3-1.73a3.322,3.322,0,0,1,5.382,3.108V185.7a2,2,0,0,0,3.33,1.925l14.346-8.281.68,1.183-14.343,8.281A4.628,4.628,0,0,1,397.863,189.5Z" transform="translate(-371.02 -168.817)" fill="#42e8e0" style="mix-blend-mode: lighten;isolation: isolate"/>
        <path id="Path_451" data-name="Path 451" d="M400.322,190.916a2.916,2.916,0,0,1-1.474-.383,3.707,3.707,0,0,1-1.619-3.414V183.66a2,2,0,0,0-3.333-1.925l-3,1.732-.682-1.186,3-1.727a3.321,3.321,0,0,1,5.382,3.106v3.459a2,2,0,0,0,3.33,1.925l14.343-8.279.682,1.181-14.343,8.279A4.583,4.583,0,0,1,400.322,190.916Z" transform="translate(-367.901 -167.025)" fill="#42e8e0" style="mix-blend-mode: lighten;isolation: isolate"/>
        <path id="Path_452" data-name="Path 452" d="M402.782,192.332a2.917,2.917,0,0,1-1.474-.383,3.71,3.71,0,0,1-1.619-3.414v-3.459a2,2,0,0,0-3.333-1.925l-2.995,1.73-.682-1.183,3-1.727a3.321,3.321,0,0,1,5.382,3.106v3.459a2,2,0,0,0,3.33,1.925l14.343-8.284.682,1.183-14.343,8.281A4.582,4.582,0,0,1,402.782,192.332Z" transform="translate(-364.782 -165.23)" fill="#42e8e0" style="mix-blend-mode: lighten;isolation: isolate"/>
        <path id="Path_453" data-name="Path 453" d="M405.246,193.747a2.921,2.921,0,0,1-1.476-.385,3.709,3.709,0,0,1-1.619-3.414v-3.457a2.431,2.431,0,0,0-.934-2.229,2.4,2.4,0,0,0-2.4.3l-2.993,1.73-.687-1.181,2.995-1.732a3.323,3.323,0,0,1,5.384,3.108v3.457a2,2,0,0,0,3.332,1.925l14.346-8.279.682,1.181-14.346,8.281A4.611,4.611,0,0,1,405.246,193.747Z" transform="translate(-361.665 -163.436)" fill="#42e8e0" style="mix-blend-mode: lighten;isolation: isolate"/>
        <path id="Path_454" data-name="Path 454" d="M407.706,195.163a2.9,2.9,0,0,1-1.476-.385,3.705,3.705,0,0,1-1.619-3.412v-3.46a2,2,0,0,0-3.332-1.925l-2.995,1.73-.682-1.181,2.995-1.73a3.32,3.32,0,0,1,5.382,3.106v3.46a2,2,0,0,0,3.335,1.925l14.343-8.279.682,1.181L410,194.471A4.6,4.6,0,0,1,407.706,195.163Z" transform="translate(-358.546 -161.643)" fill="#42e8e0" style="mix-blend-mode: lighten;isolation: isolate"/>
        <path id="Path_455" data-name="Path 455" d="M410.167,196.578a2.9,2.9,0,0,1-1.476-.385,3.7,3.7,0,0,1-1.619-3.412v-3.459a2,2,0,0,0-3.333-1.925l-2.995,1.73-.682-1.181,2.995-1.73a3.32,3.32,0,0,1,5.382,3.106v3.459a2,2,0,0,0,3.335,1.925l14.343-8.281.682,1.181-14.343,8.281A4.625,4.625,0,0,1,410.167,196.578Z" transform="translate(-355.428 -159.849)" fill="#42e8e0" style="mix-blend-mode: lighten;isolation: isolate"/>
        <path id="Path_456" data-name="Path 456" d="M412.632,197.995a2.907,2.907,0,0,1-1.478-.385,3.71,3.71,0,0,1-1.619-3.414v-3.457a2.433,2.433,0,0,0-.934-2.228,2.407,2.407,0,0,0-2.4.3l-2.993,1.73-.687-1.181,2.995-1.732a3.323,3.323,0,0,1,5.384,3.108V194.2a2,2,0,0,0,3.335,1.925l14.343-8.279.682,1.181L414.919,197.3A4.618,4.618,0,0,1,412.632,197.995Z" transform="translate(-352.311 -158.055)" fill="#42e8e0" style="mix-blend-mode: lighten;isolation: isolate"/>
        <path id="Path_457" data-name="Path 457" d="M415.089,199.41a2.9,2.9,0,0,1-1.476-.383,3.709,3.709,0,0,1-1.619-3.414v-3.459a2,2,0,0,0-3.332-1.925l-2.995,1.73-.682-1.181,2.995-1.73a3.321,3.321,0,0,1,5.382,3.106v3.459a2,2,0,0,0,3.335,1.925l14.344-8.279.682,1.181-14.343,8.281A4.614,4.614,0,0,1,415.089,199.41Z" transform="translate(-349.191 -156.263)" fill="#42e8e0" style="mix-blend-mode: lighten;isolation: isolate"/>
        <path id="Path_458" data-name="Path 458" d="M417.55,200.827a2.892,2.892,0,0,1-1.476-.385,3.7,3.7,0,0,1-1.619-3.412v-3.46a2,2,0,0,0-3.333-1.925l-2.995,1.73-.682-1.181,2.995-1.73a3.321,3.321,0,0,1,5.382,3.106v3.46a2,2,0,0,0,3.335,1.922l14.343-8.279.682,1.181-14.343,8.281A4.619,4.619,0,0,1,417.55,200.827Z" transform="translate(-346.073 -154.469)" fill="#42e8e0" style="mix-blend-mode: lighten;isolation: isolate"/>
        <path id="Path_459" data-name="Path 459" d="M420.015,202.242a2.914,2.914,0,0,1-1.48-.385,3.713,3.713,0,0,1-1.616-3.414v-3.457a2,2,0,0,0-3.332-1.925l-2.992,1.73-.687-1.181,2.995-1.732a3.323,3.323,0,0,1,5.384,3.108v3.457a2,2,0,0,0,3.335,1.925l14.343-8.279.682,1.181L422.3,201.552A4.637,4.637,0,0,1,420.015,202.242Z" transform="translate(-342.956 -152.674)" fill="#42e8e0" style="mix-blend-mode: lighten;isolation: isolate"/>
        <path id="Path_460" data-name="Path 460" d="M422.472,203.656a2.9,2.9,0,0,1-1.476-.383,3.7,3.7,0,0,1-1.616-3.414V196.4a2,2,0,0,0-3.335-1.925l-3,1.73-.68-1.181,2.995-1.73a3.322,3.322,0,0,1,5.384,3.106v3.46a2,2,0,0,0,3.332,1.925l14.343-8.281.682,1.181-14.343,8.281A4.6,4.6,0,0,1,422.472,203.656Z" transform="translate(-339.837 -150.881)" fill="#42e8e0" style="mix-blend-mode: lighten;isolation: isolate"/>
        <path id="Path_461" data-name="Path 461" d="M424.933,205.072a2.9,2.9,0,0,1-1.476-.385,3.706,3.706,0,0,1-1.616-3.414v-3.457a2,2,0,0,0-3.335-1.925l-3,1.73-.68-1.181,2.995-1.73a3.322,3.322,0,0,1,5.384,3.106v3.457a2,2,0,0,0,3.333,1.925l14.343-8.279.682,1.181-14.343,8.284A4.638,4.638,0,0,1,424.933,205.072Z" transform="translate(-336.719 -149.086)" fill="#42e8e0" style="mix-blend-mode: lighten;isolation: isolate"/>
        <path id="Path_462" data-name="Path 462" d="M427.4,206.486a2.9,2.9,0,0,1-1.476-.383,3.7,3.7,0,0,1-1.619-3.412v-3.46a2,2,0,0,0-3.332-1.922l-2.995,1.727-.685-1.181,2.995-1.732a3.324,3.324,0,0,1,5.386,3.108v3.46A2,2,0,0,0,429,204.613l14.343-8.279.682,1.181L429.683,205.8A4.6,4.6,0,0,1,427.4,206.486Z" transform="translate(-333.602 -147.292)" fill="#42e8e0" style="mix-blend-mode: lighten;isolation: isolate"/>
        <path id="Path_463" data-name="Path 463" d="M429.855,207.9a2.9,2.9,0,0,1-1.476-.383,3.7,3.7,0,0,1-1.619-3.412v-3.462a2,2,0,0,0-3.332-1.922l-3,1.728-.68-1.181,2.995-1.73a3.322,3.322,0,0,1,5.384,3.106v3.462a2,2,0,0,0,3.333,1.922l14.343-8.281.682,1.181-14.346,8.284A4.6,4.6,0,0,1,429.855,207.9Z" transform="translate(-330.482 -145.5)" fill="#42e8e0" style="mix-blend-mode: lighten;isolation: isolate"/>
        <path id="Path_464" data-name="Path 464" d="M432.315,209.319a2.9,2.9,0,0,1-1.474-.385,3.7,3.7,0,0,1-1.619-3.414v-3.457a2,2,0,0,0-3.332-1.922l-3,1.727-.682-1.181,3-1.73a3.322,3.322,0,0,1,5.384,3.106v3.457a2,2,0,0,0,3.333,1.925l14.343-8.279.68,1.181L434.6,208.63A4.625,4.625,0,0,1,432.315,209.319Z" transform="translate(-327.365 -143.705)" fill="#42e8e0" style="mix-blend-mode: lighten;isolation: isolate"/>
        <path id="Path_465" data-name="Path 465" d="M434.776,210.733a2.893,2.893,0,0,1-1.474-.383,3.7,3.7,0,0,1-1.619-3.412v-3.459a2.428,2.428,0,0,0-.934-2.228,2.4,2.4,0,0,0-2.4.306l-2.995,1.727-.685-1.181,2.995-1.732a3.324,3.324,0,0,1,5.386,3.108v3.459a1.995,1.995,0,0,0,3.33,1.922l14.346-8.279.68,1.181-14.343,8.281A4.6,4.6,0,0,1,434.776,210.733Z" transform="translate(-324.247 -141.911)" fill="#42e8e0" style="mix-blend-mode: lighten;isolation: isolate"/>
        <path id="Path_466" data-name="Path 466" d="M437.237,212.15a2.893,2.893,0,0,1-1.473-.383,3.7,3.7,0,0,1-1.619-3.412v-3.462a2,2,0,0,0-3.332-1.922l-3,1.73-.682-1.183,3-1.732a3.322,3.322,0,0,1,5.382,3.108v3.462a1.995,1.995,0,0,0,3.33,1.922L453.19,202l.68,1.181-14.344,8.284A4.6,4.6,0,0,1,437.237,212.15Z" transform="translate(-321.129 -140.118)" fill="#42e8e0" style="mix-blend-mode: lighten;isolation: isolate"/>
      </g>
      <g id="Group_168" data-name="Group 168" transform="translate(24.186 1.856)">
        <g id="Group_164" data-name="Group 164">
          <path id="Path_467" data-name="Path 467" d="M441.416,314.186,331.19,250.546l110.223-63.637,110.227,63.639Z" transform="translate(-331.19 -159.687)" opacity="0.8" fill="url(#radial-gradient)" style="mix-blend-mode: multiply;isolation: isolate"/>
          <path id="Path_468" data-name="Path 468" d="M551.639,202.974v12.737L441.416,279.349,331.19,215.709V202.972Z" transform="translate(-331.19 -139.334)" fill="url(#linear-gradient)"/>
          <path id="Path_469" data-name="Path 469" d="M441.416,302.178,331.19,238.538,441.413,174.9,551.639,238.54Z" transform="translate(-331.19 -174.901)" fill="#bcbeff"/>
          <path id="Path_470" data-name="Path 470" d="M441.416,265.539,332.478,202.644l-1.289.744,110.226,63.639L551.639,203.39l-1.289-.744Z" transform="translate(-331.19 -139.75)" fill="#fff"/>
        </g>
        <g id="Group_167" data-name="Group 167" transform="translate(25.446 2.363)">
          <path id="Path_471" data-name="Path 471" d="M427.193,279.281l-84.779-48.947,84.776-48.945,84.779,48.947Z" transform="translate(-342.413 -169.045)" fill="#0f054c"/>
          <g id="Group_166" data-name="Group 166">
            <path id="Path_472" data-name="Path 472" d="M427.194,279.282l-84.78-48.948,84.778-48.946,84.78,48.948Z" transform="translate(-342.414 -169.045)" opacity="0.5" fill="url(#linear-gradient-2)"/>
            <g id="Group_165" data-name="Group 165">
              <path id="Path_473" data-name="Path 473" d="M379.81,175.943l84.78,48.948v12.342l-84.78-48.948Z" transform="translate(-295.032 -175.943)" opacity="0.5" fill="url(#linear-gradient-2)"/>
              <path id="Path_474" data-name="Path 474" d="M427.194,188.286l-84.78,48.946V224.89l84.778-48.947Z" transform="translate(-342.414 -175.943)" opacity="0.5" fill="url(#linear-gradient-2)"/>
              <path id="Path_475" data-name="Path 475" d="M427.194,273.838l-84.78-48.948,84.778-48.947,84.78,48.948Z" transform="translate(-342.414 -175.943)" opacity="0.5" fill="url(#linear-gradient-2)"/>
              <path id="Path_476" data-name="Path 476" d="M398.744,228.024l-33.876-19.559,33.875-19.558,33.877,19.559Z" transform="translate(-313.964 -159.518)" fill="#42e8e0" opacity="0.5"/>
              <path id="Path_477" data-name="Path 477" d="M398.743,190.707l32.318,18.659,1.559-.9-33.876-19.559-33.875,19.558,1.559.9Z" transform="translate(-313.964 -159.518)" fill="#42e8e0" opacity="0.5"/>
              <path id="Path_478" data-name="Path 478" d="M379.811,246.481v12.342l84.778-48.946V197.535Z" transform="translate(-295.031 -148.587)" opacity="0.5" fill="url(#linear-gradient-2)"/>
            </g>
            <path id="Path_479" data-name="Path 479" d="M342.414,197.534v12.342l84.78,48.948V246.482Z" transform="translate(-342.414 -148.587)" opacity="0.5" fill="url(#linear-gradient-2)"/>
          </g>
          <path id="Path_480" data-name="Path 480" d="M427.194,245.511l-83.614-48.275-1.167.674,84.78,48.948,84.778-48.947-1.167-.674Z" transform="translate(-342.414 -148.964)" fill="#42e8e0" opacity="0.8"/>
        </g>
      </g>
      <g id="Group_169" data-name="Group 169" transform="translate(135.688 66.405)">
        <path id="Path_481" data-name="Path 481" d="M406.431,260.067l-14.344-8.281a10.244,10.244,0,0,1-4.7-8.139V240.19a8.885,8.885,0,0,0-4.015-6.955l-3-1.734.685-1.181,3,1.732a10.242,10.242,0,0,1,4.7,8.139v3.457a9.013,9.013,0,0,0,4.013,6.953l14.343,8.286Z" transform="translate(-380.374 -169.234)" fill="#42e8e0" style="mix-blend-mode: lighten;isolation: isolate"/>
        <path id="Path_482" data-name="Path 482" d="M408.891,258.649l-14.343-8.281a10.238,10.238,0,0,1-4.7-8.139v-3.457a8.9,8.9,0,0,0-4.013-6.96l-3-1.727.68-1.183,3,1.727a10.251,10.251,0,0,1,4.7,8.143v3.457a9.013,9.013,0,0,0,4.013,6.953l14.343,8.286Z" transform="translate(-377.254 -171.031)" fill="#42e8e0" style="mix-blend-mode: lighten;isolation: isolate"/>
        <path id="Path_483" data-name="Path 483" d="M411.352,257.231l-14.346-8.281a10.243,10.243,0,0,1-4.7-8.139v-3.459a9.028,9.028,0,0,0-4.013-6.958l-3-1.725.68-1.186,3,1.727a10.25,10.25,0,0,1,4.7,8.141v3.459a9.025,9.025,0,0,0,4.013,6.955l14.344,8.284Z" transform="translate(-374.136 -172.827)" fill="#42e8e0" style="mix-blend-mode: lighten;isolation: isolate"/>
        <path id="Path_484" data-name="Path 484" d="M413.814,255.813l-14.346-8.281a10.243,10.243,0,0,1-4.7-8.139v-3.459a9.028,9.028,0,0,0-4.013-6.957l-3-1.725.682-1.186,3,1.727a10.253,10.253,0,0,1,4.7,8.141v3.459a9.021,9.021,0,0,0,4.013,6.955l14.343,8.284Z" transform="translate(-371.02 -174.624)" fill="#42e8e0" style="mix-blend-mode: lighten;isolation: isolate"/>
        <path id="Path_485" data-name="Path 485" d="M416.273,254.394l-14.343-8.279a10.244,10.244,0,0,1-4.7-8.141v-3.457a9.017,9.017,0,0,0-4.013-6.955l-3-1.732.682-1.183,3,1.732a10.238,10.238,0,0,1,4.7,8.139v3.457a8.894,8.894,0,0,0,4.013,6.958l14.343,8.281Z" transform="translate(-367.901 -176.422)" fill="#42e8e0" style="mix-blend-mode: lighten;isolation: isolate"/>
        <path id="Path_486" data-name="Path 486" d="M418.734,252.976l-14.343-8.281a10.242,10.242,0,0,1-4.7-8.139V233.1a9.023,9.023,0,0,0-4.013-6.955l-3-1.732.687-1.183,2.995,1.732a10.248,10.248,0,0,1,4.7,8.139v3.457a9.021,9.021,0,0,0,4.013,6.955l14.343,8.284Z" transform="translate(-364.783 -178.218)" fill="#42e8e0" style="mix-blend-mode: lighten;isolation: isolate"/>
        <path id="Path_487" data-name="Path 487" d="M421.2,251.558l-14.346-8.281a10.242,10.242,0,0,1-4.7-8.139v-3.457a8.9,8.9,0,0,0-4.015-6.96l-2.995-1.727.682-1.183,2.995,1.73a10.243,10.243,0,0,1,4.7,8.141v3.457a9.023,9.023,0,0,0,4.015,6.955l14.346,8.284Z" transform="translate(-361.664 -180.015)" fill="#42e8e0" style="mix-blend-mode: lighten;isolation: isolate"/>
        <path id="Path_488" data-name="Path 488" d="M423.657,250.14l-14.343-8.281a10.245,10.245,0,0,1-4.7-8.139V230.26a9.023,9.023,0,0,0-4.015-6.955l-2.995-1.73.682-1.183,2.995,1.73a10.243,10.243,0,0,1,4.7,8.139v3.459A8.9,8.9,0,0,0,410,240.677l14.343,8.281Z" transform="translate(-358.546 -181.812)" fill="#42e8e0" style="mix-blend-mode: lighten;isolation: isolate"/>
        <path id="Path_489" data-name="Path 489" d="M426.118,248.722l-14.343-8.281a10.245,10.245,0,0,1-4.7-8.139v-3.459a9.023,9.023,0,0,0-4.015-6.955l-2.995-1.73.682-1.183,2.995,1.73a10.243,10.243,0,0,1,4.7,8.139V232.3a8.9,8.9,0,0,0,4.017,6.958l14.343,8.281Z" transform="translate(-355.428 -183.608)" fill="#42e8e0" style="mix-blend-mode: lighten;isolation: isolate"/>
        <path id="Path_490" data-name="Path 490" d="M428.58,247.305l-14.343-8.281a10.249,10.249,0,0,1-4.7-8.141v-3.457a9.031,9.031,0,0,0-4.015-6.957l-3-1.73.687-1.183,2.995,1.732a10.245,10.245,0,0,1,4.7,8.139v3.457a8.9,8.9,0,0,0,4.017,6.96l14.343,8.279Z" transform="translate(-352.311 -185.406)" fill="#42e8e0" style="mix-blend-mode: lighten;isolation: isolate"/>
        <path id="Path_491" data-name="Path 491" d="M431.041,245.887,416.7,237.6a10.238,10.238,0,0,1-4.7-8.139v-3.457a9.023,9.023,0,0,0-4.015-6.955l-3-1.732.687-1.183,2.995,1.732a10.245,10.245,0,0,1,4.7,8.139v3.457a9.022,9.022,0,0,0,4.017,6.955l14.344,8.284Z" transform="translate(-349.192 -187.203)" fill="#42e8e0" style="mix-blend-mode: lighten;isolation: isolate"/>
        <path id="Path_492" data-name="Path 492" d="M433.5,244.467l-14.343-8.281a10.238,10.238,0,0,1-4.7-8.139V224.59a8.89,8.89,0,0,0-4.015-6.957l-2.995-1.73.682-1.183,2.995,1.73a10.243,10.243,0,0,1,4.7,8.141v3.457A9.022,9.022,0,0,0,419.84,235l14.343,8.284Z" transform="translate(-346.073 -189)" fill="#42e8e0" style="mix-blend-mode: lighten;isolation: isolate"/>
        <path id="Path_493" data-name="Path 493" d="M435.962,243.048l-14.343-8.281a10.245,10.245,0,0,1-4.7-8.139v-3.459a9.027,9.027,0,0,0-4.015-6.955l-2.995-1.73.682-1.181,2.995,1.727a10.243,10.243,0,0,1,4.7,8.139v3.459a9.037,9.037,0,0,0,4.017,6.958l14.343,8.281Z" transform="translate(-342.955 -190.795)" fill="#42e8e0" style="mix-blend-mode: lighten;isolation: isolate"/>
        <path id="Path_494" data-name="Path 494" d="M438.423,241.632l-14.343-8.284a10.243,10.243,0,0,1-4.7-8.139V221.75a9.033,9.033,0,0,0-4.017-6.955l-2.995-1.73.68-1.181,3,1.727a10.245,10.245,0,0,1,4.7,8.139v3.459a9.031,9.031,0,0,0,4.015,6.958l14.343,8.281Z" transform="translate(-339.837 -192.592)" fill="#42e8e0" style="mix-blend-mode: lighten;isolation: isolate"/>
        <path id="Path_495" data-name="Path 495" d="M440.884,240.213l-14.343-8.281a10.243,10.243,0,0,1-4.7-8.139v-3.459a9.026,9.026,0,0,0-4.017-6.955l-2.995-1.73.68-1.183,3,1.73a10.238,10.238,0,0,1,4.7,8.139v3.459a9.031,9.031,0,0,0,4.015,6.958l14.343,8.279Z" transform="translate(-336.719 -194.389)" fill="#42e8e0" style="mix-blend-mode: lighten;isolation: isolate"/>
        <path id="Path_496" data-name="Path 496" d="M443.346,238.795,429,230.513a10.239,10.239,0,0,1-4.7-8.139v-3.459a9.015,9.015,0,0,0-4.015-6.953l-3-1.734.685-1.181,3,1.73a10.242,10.242,0,0,1,4.7,8.139v3.459a8.9,8.9,0,0,0,4.013,6.958l14.346,8.279Z" transform="translate(-333.602 -196.186)" fill="#42e8e0" style="mix-blend-mode: lighten;isolation: isolate"/>
        <path id="Path_497" data-name="Path 497" d="M445.806,237.377l-14.343-8.284a10.234,10.234,0,0,1-4.7-8.136V217.5a8.9,8.9,0,0,0-4.015-6.958l-2.995-1.73.68-1.181,3,1.727a10.249,10.249,0,0,1,4.7,8.141v3.459a9.017,9.017,0,0,0,4.013,6.953l14.346,8.284Z" transform="translate(-330.482 -197.983)" fill="#42e8e0" style="mix-blend-mode: lighten;isolation: isolate"/>
        <path id="Path_498" data-name="Path 498" d="M448.268,235.959l-14.343-8.284a10.234,10.234,0,0,1-4.7-8.136v-3.462a9.034,9.034,0,0,0-4.015-6.955l-3-1.73.682-1.181,3,1.727a10.245,10.245,0,0,1,4.7,8.139v3.462a9.016,9.016,0,0,0,4.013,6.953l14.344,8.284Z" transform="translate(-327.365 -199.779)" fill="#42e8e0" style="mix-blend-mode: lighten;isolation: isolate"/>
        <path id="Path_499" data-name="Path 499" d="M450.729,234.541l-14.346-8.284a10.242,10.242,0,0,1-4.7-8.136v-3.462a8.892,8.892,0,0,0-4.015-6.955l-3-1.73.682-1.181,3,1.727a10.245,10.245,0,0,1,4.7,8.139v3.462a9.028,9.028,0,0,0,4.013,6.955l14.343,8.281Z" transform="translate(-324.247 -201.576)" fill="#42e8e0" style="mix-blend-mode: lighten;isolation: isolate"/>
        <path id="Path_500" data-name="Path 500" d="M453.19,233.122l-14.346-8.281a10.238,10.238,0,0,1-4.7-8.136v-3.462a9.025,9.025,0,0,0-4.013-6.955l-3-1.727.682-1.186,3,1.727a10.255,10.255,0,0,1,4.7,8.141V216.7a9.028,9.028,0,0,0,4.013,6.955l14.344,8.279Z" transform="translate(-321.129 -203.374)" fill="#42e8e0" style="mix-blend-mode: lighten;isolation: isolate"/>
      </g>
      <g id="Group_170" data-name="Group 170" transform="translate(0 66.407)">
        <path id="Path_501" data-name="Path 501" d="M367.962,260.067l-.682-1.181,14.344-8.284a9.026,9.026,0,0,0,4.017-6.955V240.19a10.249,10.249,0,0,1,4.7-8.141l2.992-1.73.687,1.181-2.995,1.732a9.017,9.017,0,0,0-4.017,6.957v3.457a10.246,10.246,0,0,1-4.7,8.141Z" transform="translate(-261.276 -169.236)" fill="#42e8e0" style="mix-blend-mode: lighten;isolation: isolate"/>
        <path id="Path_502" data-name="Path 502" d="M365.5,258.649l-.682-1.181,14.343-8.284a9.023,9.023,0,0,0,4.015-6.955v-3.457a10.246,10.246,0,0,1,4.7-8.141l2.995-1.73.682,1.183-2.995,1.727a8.9,8.9,0,0,0-4.015,6.96v3.457a10.246,10.246,0,0,1-4.7,8.141Z" transform="translate(-264.394 -171.033)" fill="#42e8e0" style="mix-blend-mode: lighten;isolation: isolate"/>
        <path id="Path_503" data-name="Path 503" d="M363.04,257.231l-.682-1.181,14.343-8.284a9.033,9.033,0,0,0,4.017-6.955v-3.459a10.243,10.243,0,0,1,4.7-8.139l2.995-1.73.682,1.183-2.995,1.727a9.031,9.031,0,0,0-4.015,6.958v3.459a10.245,10.245,0,0,1-4.7,8.139Z" transform="translate(-267.512 -172.83)" fill="#42e8e0" style="mix-blend-mode: lighten;isolation: isolate"/>
        <path id="Path_504" data-name="Path 504" d="M360.579,255.813l-.682-1.181,14.343-8.284a9.023,9.023,0,0,0,4.015-6.955v-3.459a10.245,10.245,0,0,1,4.7-8.139l2.995-1.73.682,1.183-2.995,1.727a9.037,9.037,0,0,0-4.017,6.957v3.459a10.243,10.243,0,0,1-4.7,8.139Z" transform="translate(-270.631 -174.626)" fill="#42e8e0" style="mix-blend-mode: lighten;isolation: isolate"/>
        <path id="Path_505" data-name="Path 505" d="M358.118,254.394l-.682-1.181,14.343-8.281a8.89,8.89,0,0,0,4.015-6.958v-3.457a10.238,10.238,0,0,1,4.7-8.139l2.992-1.732.687,1.183-2.995,1.73a9.026,9.026,0,0,0-4.02,6.957v3.457a10.244,10.244,0,0,1-4.7,8.141Z" transform="translate(-273.749 -176.424)" fill="#42e8e0" style="mix-blend-mode: lighten;isolation: isolate"/>
        <path id="Path_506" data-name="Path 506" d="M355.657,252.976l-.682-1.181,14.343-8.281a9.031,9.031,0,0,0,4.015-6.958V233.1a10.238,10.238,0,0,1,4.7-8.139l2.992-1.732.687,1.183-2.995,1.73A9.026,9.026,0,0,0,374.7,233.1v3.457a10.242,10.242,0,0,1-4.7,8.139Z" transform="translate(-276.867 -178.221)" fill="#42e8e0" style="mix-blend-mode: lighten;isolation: isolate"/>
        <path id="Path_507" data-name="Path 507" d="M353.2,251.558l-.682-1.181,14.344-8.281a9.031,9.031,0,0,0,4.015-6.958v-3.457a10.249,10.249,0,0,1,4.7-8.141l2.995-1.73.683,1.183-2.995,1.727a8.9,8.9,0,0,0-4.017,6.96v3.457a10.242,10.242,0,0,1-4.7,8.139Z" transform="translate(-279.985 -180.017)" fill="#42e8e0" style="mix-blend-mode: lighten;isolation: isolate"/>
        <path id="Path_508" data-name="Path 508" d="M350.735,250.14l-.682-1.181,14.343-8.281a9.031,9.031,0,0,0,4.015-6.958V230.26a10.245,10.245,0,0,1,4.7-8.139l3-1.73.68,1.183-2.995,1.73a8.888,8.888,0,0,0-4.017,6.955v3.459a10.243,10.243,0,0,1-4.7,8.139Z" transform="translate(-283.103 -181.814)" fill="#42e8e0" style="mix-blend-mode: lighten;isolation: isolate"/>
        <path id="Path_509" data-name="Path 509" d="M348.274,248.723l-.682-1.181,14.346-8.281a9.035,9.035,0,0,0,4.013-6.958v-3.459a10.243,10.243,0,0,1,4.7-8.139l3-1.732.68,1.188-3,1.727a9.023,9.023,0,0,0-4.015,6.955V232.3a10.243,10.243,0,0,1-4.7,8.139Z" transform="translate(-286.221 -183.612)" fill="#42e8e0" style="mix-blend-mode: lighten;isolation: isolate"/>
        <path id="Path_510" data-name="Path 510" d="M345.813,247.305l-.682-1.183,14.346-8.279a8.9,8.9,0,0,0,4.013-6.96v-3.457a10.249,10.249,0,0,1,4.7-8.141l3-1.73.68,1.183-3,1.73a9.029,9.029,0,0,0-4.013,6.957v3.457a10.246,10.246,0,0,1-4.7,8.141Z" transform="translate(-289.339 -185.409)" fill="#42e8e0" style="mix-blend-mode: lighten;isolation: isolate"/>
        <path id="Path_511" data-name="Path 511" d="M343.351,245.887l-.68-1.183,14.343-8.281a9.025,9.025,0,0,0,4.013-6.958v-3.457a10.249,10.249,0,0,1,4.7-8.141l3-1.73.68,1.183-3,1.732a9.021,9.021,0,0,0-4.013,6.955v3.457a10.246,10.246,0,0,1-4.7,8.141Z" transform="translate(-292.456 -187.205)" fill="#42e8e0" style="mix-blend-mode: lighten;isolation: isolate"/>
        <path id="Path_512" data-name="Path 512" d="M340.89,244.467l-.68-1.181L354.553,235a9.025,9.025,0,0,0,4.013-6.957V224.59a10.243,10.243,0,0,1,4.7-8.141l3-1.73.682,1.186-3,1.73a8.886,8.886,0,0,0-4.013,6.955v3.457a10.246,10.246,0,0,1-4.7,8.141Z" transform="translate(-295.575 -189.002)" fill="#42e8e0" style="mix-blend-mode: lighten;isolation: isolate"/>
        <path id="Path_513" data-name="Path 513" d="M338.429,243.048l-.68-1.181,14.343-8.281a9.028,9.028,0,0,0,4.013-6.958v-3.459a10.239,10.239,0,0,1,4.7-8.139L363.8,213.3l.682,1.181-3,1.73a9.024,9.024,0,0,0-4.013,6.955v3.459a10.243,10.243,0,0,1-4.7,8.139Z" transform="translate(-298.693 -190.797)" fill="#42e8e0" style="mix-blend-mode: lighten;isolation: isolate"/>
        <path id="Path_514" data-name="Path 514" d="M335.967,241.632l-.68-1.183,14.346-8.281a9.029,9.029,0,0,0,4.013-6.958V221.75a10.245,10.245,0,0,1,4.7-8.139l2.995-1.727.682,1.181-3,1.73a9.025,9.025,0,0,0-4.013,6.955v3.459a10.243,10.243,0,0,1-4.7,8.139Z" transform="translate(-301.812 -192.594)" fill="#42e8e0" style="mix-blend-mode: lighten;isolation: isolate"/>
        <path id="Path_515" data-name="Path 515" d="M333.508,240.213l-.682-1.183,14.344-8.279a8.9,8.9,0,0,0,4.015-6.958v-3.459a10.252,10.252,0,0,1,4.7-8.141l2.995-1.727.682,1.183-3,1.73a9.021,9.021,0,0,0-4.013,6.955v3.459a10.245,10.245,0,0,1-4.7,8.139Z" transform="translate(-304.93 -194.392)" fill="#42e8e0" style="mix-blend-mode: lighten;isolation: isolate"/>
        <path id="Path_516" data-name="Path 516" d="M331.047,238.795l-.682-1.183,14.343-8.279a8.9,8.9,0,0,0,4.015-6.958v-3.459a10.244,10.244,0,0,1,4.7-8.139l2.992-1.73.687,1.181-3,1.732a9.023,9.023,0,0,0-4.015,6.955v3.459a10.245,10.245,0,0,1-4.7,8.139Z" transform="translate(-308.048 -196.188)" fill="#42e8e0" style="mix-blend-mode: lighten;isolation: isolate"/>
        <path id="Path_517" data-name="Path 517" d="M328.586,237.377l-.682-1.183,14.343-8.281a9.029,9.029,0,0,0,4.017-6.955V217.5a10.244,10.244,0,0,1,4.7-8.141l2.995-1.727.682,1.181-2.995,1.73a8.89,8.89,0,0,0-4.015,6.958v3.459a10.234,10.234,0,0,1-4.7,8.136Z" transform="translate(-311.167 -197.985)" fill="#42e8e0" style="mix-blend-mode: lighten;isolation: isolate"/>
        <path id="Path_518" data-name="Path 518" d="M326.125,235.959l-.682-1.183,14.344-8.281a9.029,9.029,0,0,0,4.017-6.955v-3.462a10.243,10.243,0,0,1,4.7-8.139l2.995-1.727.682,1.181-2.995,1.73a9.031,9.031,0,0,0-4.015,6.955v3.462a10.234,10.234,0,0,1-4.7,8.136Z" transform="translate(-314.285 -199.782)" fill="#42e8e0" style="mix-blend-mode: lighten;isolation: isolate"/>
        <path id="Path_519" data-name="Path 519" d="M323.664,234.541l-.682-1.183,14.344-8.281a9.036,9.036,0,0,0,4.017-6.955v-3.462a10.243,10.243,0,0,1,4.7-8.139l2.995-1.727.682,1.181-2.995,1.73a9.031,9.031,0,0,0-4.015,6.955v3.462a10.244,10.244,0,0,1-4.7,8.136Z" transform="translate(-317.403 -201.578)" fill="#42e8e0" style="mix-blend-mode: lighten;isolation: isolate"/>
        <path id="Path_520" data-name="Path 520" d="M321.2,233.121l-.682-1.183,14.343-8.279a9.036,9.036,0,0,0,4.017-6.955v-3.462a10.253,10.253,0,0,1,4.7-8.141l2.995-1.725.682,1.181-2.995,1.73a9.027,9.027,0,0,0-4.015,6.955V216.7a10.241,10.241,0,0,1-4.7,8.136Z" transform="translate(-320.521 -203.375)" fill="#42e8e0" style="mix-blend-mode: lighten;isolation: isolate"/>
      </g>
    </g>
    <path id="Path_521" data-name="Path 521" d="M427.194,268.839l-84.78-48.948V181.882l84.354,46.825,85.2-48.819v40Z" transform="translate(433.847 261.073)" opacity="0.5" fill="url(#linear-gradient-2)"/>
    <path id="Path_522" data-name="Path 522" d="M511.972,189.482v-9.594l-85.2,48.82-84.354-46.825v7.953L421.7,235.6c2.811,1.628,7.724,1.428,10.975-.442Z" transform="translate(433.847 261.072)" fill="#42e8e0" opacity="0.7"/>
    <g id="Group_188" data-name="Group 188" transform="translate(772.155 297.357)">
      <g id="Group_184" data-name="Group 184">
        <g id="Group_174" data-name="Group 174" transform="translate(0 76.556)">
          <g id="Group_173" data-name="Group 173">
            <path id="Path_523" data-name="Path 523" d="M434.965,265.428,516.8,218.294c1.8-1.034,2.7-2.36,2.686-3.616l0,0,0-14.767-2.8,2.5-2.412-1.4c.263-.306.444-.571.394-.657l-1.2-2.077L455.743,164.2l-18.352-10.687-7.171-2.07L346.209,199.72l.243,1.941-2.242,1.292-3.591-1.607-.016,14.681.009-.009a3.221,3.221,0,0,0,1.886,2.816l81.493,47.038C426.8,267.5,431.717,267.3,434.965,265.428Zm33.221-36.408L431.13,249.255l-3.187-.156-61.888-34.627-17.145-8.855L429.665,159.1a2.784,2.784,0,0,1,2.507-.1l78.589,45.356Z" transform="translate(-340.603 -148.88)" fill="url(#linear-gradient-9)"/>
            <path id="Path_524" data-name="Path 524" d="M434.965,265.428,516.8,218.294c1.8-1.034,2.7-2.36,2.686-3.616l0,0,0-14.767-2.8,2.5-2.412-1.4c.263-.306.444-.571.394-.657l-1.2-2.077L455.743,164.2l-18.352-10.687-7.171-2.07L346.209,199.72l.243,1.941-2.242,1.292-3.591-1.607-.016,14.681.009-.009a3.221,3.221,0,0,0,1.886,2.816l81.493,47.038C426.8,267.5,431.717,267.3,434.965,265.428Zm33.221-36.408L431.13,249.255l-3.187-.156-61.888-34.627-17.145-8.855L429.665,159.1a2.784,2.784,0,0,1,2.507-.1l78.589,45.356Z" transform="translate(-340.603 -148.88)" fill="url(#linear-gradient-10)"/>
            <path id="Path_525" data-name="Path 525" d="M379.623,239.875l.009-17.81,2.058.1,37.057-20.235,42.575-24.661-1.412-.816c1.317-.759,8.778-2.838,10.147-3.627l0,13.693v1.075l0,0c.016,1.256-.891,2.582-2.686,3.616l-81.837,47.134A12.619,12.619,0,0,1,379.623,239.875Z" transform="translate(-291.164 -121.79)" fill="#0f054c" opacity="0.6"/>
            <path id="Path_526" data-name="Path 526" d="M434.969,251.921l81.837-47.134c3.251-1.873,3.607-4.709.8-6.336l-81.493-47.036c-2.811-1.628-7.726-1.428-10.975.442L343.3,198.993c-3.251,1.87-3.607,4.706-.8,6.334l81.493,47.038C426.805,253.991,431.72,253.791,434.969,251.921Zm-4.536-2.757a2.793,2.793,0,0,1-2.505.1l-80.049-46.2c-.642-.372-.56-1.02.181-1.446l81.608-47a2.786,2.786,0,0,1,2.505-.1l80.051,46.2c.641.369.56,1.018-.181,1.446Z" transform="translate(-340.6 -150.313)" fill="url(#linear-gradient-11)"/>
            <path id="Path_527" data-name="Path 527" d="M434.969,251.921l81.837-47.134c3.251-1.873,3.607-4.709.8-6.336l-81.493-47.036c-2.811-1.628-7.726-1.428-10.975.442L343.3,198.993c-3.251,1.87-3.607,4.706-.8,6.334l81.493,47.038C426.805,253.991,431.72,253.791,434.969,251.921Zm-4.536-2.757a2.793,2.793,0,0,1-2.505.1l-80.049-46.2c-.642-.372-.56-1.02.181-1.446l81.608-47a2.786,2.786,0,0,1,2.505-.1l80.051,46.2c.641.369.56,1.018-.181,1.446Z" transform="translate(-340.6 -150.313)" fill="url(#linear-gradient-12)"/>
            <g id="Group_172" data-name="Group 172" transform="translate(0.013 3.146)">
              <path id="Path_528" data-name="Path 528" d="M508.4,198.152l-80.051-46.2a2.786,2.786,0,0,0-2.5.1l-81.608,47c-.6.345-.759.832-.46,1.2a1.434,1.434,0,0,1,.46-.4l81.608-47a2.786,2.786,0,0,1,2.5-.1l80.051,46.2a.953.953,0,0,1,.279.24A.673.673,0,0,0,508.4,198.152Z" transform="translate(-336.785 -151.701)" fill="#42e8e0"/>
              <path id="Path_529" data-name="Path 529" d="M516.8,175.76,434.965,222.9c-3.249,1.873-8.164,2.07-10.975.442L342.5,176.3a3.43,3.43,0,0,1-1.857-2.36A3.115,3.115,0,0,0,342.5,177.1l81.493,47.038c2.811,1.625,7.726,1.426,10.975-.444L516.8,176.564c1.968-1.134,2.865-2.618,2.652-3.976A4.85,4.85,0,0,1,516.8,175.76Z" transform="translate(-340.608 -125.236)" fill="#42e8e0"/>
            </g>
            <path id="Path_530" data-name="Path 530" d="M428.346,158.228a2.784,2.784,0,0,0-2.507.1l-77.82,44.819-3.963-2.292c-.642-.372-.56-1.02.181-1.446l81.608-47a2.786,2.786,0,0,1,2.505-.1l80.051,46.2c.642.369.56,1.018-.181,1.446l-3.788,2.181Z" transform="translate(-336.776 -148.106)" fill="#251c72"/>
            <path id="Path_531" data-name="Path 531" d="M508.22,199.955c.741-.429.823-1.077.181-1.446l-80.051-46.2a2.786,2.786,0,0,0-2.505.1l-81.608,47c-.741.426-.823,1.075-.181,1.446l80.049,46.2a2.794,2.794,0,0,0,2.505-.1Z" transform="translate(-336.776 -148.106)" fill="#42e8e0" opacity="0.7"/>
          </g>
        </g>
        <g id="Group_177" data-name="Group 177" transform="translate(0 51.038)">
          <g id="Group_176" data-name="Group 176">
            <path id="Path_532" data-name="Path 532" d="M434.965,254.172,516.8,207.038c1.8-1.034,2.7-2.362,2.686-3.618l0,.007,0-14.767-2.8,2.5-2.412-1.4c.263-.306.444-.574.394-.657-.143-.249-1.2-2.079-1.2-2.079l-57.734-34.082-18.352-10.687-7.171-2.07-84.011,48.274.243,1.943L344.21,191.7l-3.591-1.61-.016,14.681.009-.007a3.224,3.224,0,0,0,1.886,2.816l81.493,47.038C426.8,256.241,431.717,256.044,434.965,254.172Zm33.221-36.408L431.13,238l-3.187-.156-61.888-34.627-17.145-8.857,80.756-46.513a2.791,2.791,0,0,1,2.507-.1L510.761,193.1Z" transform="translate(-340.603 -137.623)" fill="url(#linear-gradient-13)"/>
            <path id="Path_533" data-name="Path 533" d="M434.965,254.172,516.8,207.038c1.8-1.034,2.7-2.362,2.686-3.618l0,.007,0-14.767-2.8,2.5-2.412-1.4c.263-.306.444-.574.394-.657-.143-.249-1.2-2.079-1.2-2.079l-57.734-34.082-18.352-10.687-7.171-2.07-84.011,48.274.243,1.943L344.21,191.7l-3.591-1.61-.016,14.681.009-.007a3.224,3.224,0,0,0,1.886,2.816l81.493,47.038C426.8,256.241,431.717,256.044,434.965,254.172Zm33.221-36.408L431.13,238l-3.187-.156-61.888-34.627-17.145-8.857,80.756-46.513a2.791,2.791,0,0,1,2.507-.1L510.761,193.1Z" transform="translate(-340.603 -137.623)" fill="url(#linear-gradient-14)"/>
            <path id="Path_534" data-name="Path 534" d="M379.623,228.618l.009-17.812,2.058.1,37.057-20.235,42.575-24.661-1.412-.818c1.317-.757,8.778-2.836,10.147-3.625l0,13.691v1.077l0-.007c.016,1.256-.891,2.584-2.686,3.618l-81.837,47.134A12.672,12.672,0,0,1,379.623,228.618Z" transform="translate(-291.164 -110.533)" fill="#0f054c" opacity="0.6"/>
            <path id="Path_535" data-name="Path 535" d="M434.969,240.666l81.837-47.136c3.251-1.873,3.607-4.709.8-6.334l-81.493-47.038c-2.811-1.625-7.726-1.428-10.975.444L343.3,187.735c-3.251,1.873-3.607,4.709-.8,6.336l81.493,47.036C426.805,242.735,431.72,242.536,434.969,240.666Zm-4.536-2.759a2.779,2.779,0,0,1-2.505.1l-80.049-46.2c-.642-.372-.56-1.018.181-1.446l81.608-47a2.779,2.779,0,0,1,2.505-.1l80.051,46.2c.641.372.56,1.02-.181,1.446Z" transform="translate(-340.6 -139.057)" fill="url(#linear-gradient-15)"/>
            <path id="Path_536" data-name="Path 536" d="M434.969,240.666l81.837-47.136c3.251-1.873,3.607-4.709.8-6.334l-81.493-47.038c-2.811-1.625-7.726-1.428-10.975.444L343.3,187.735c-3.251,1.873-3.607,4.709-.8,6.336l81.493,47.036C426.805,242.735,431.72,242.536,434.969,240.666Zm-4.536-2.759a2.779,2.779,0,0,1-2.505.1l-80.049-46.2c-.642-.372-.56-1.018.181-1.446l81.608-47a2.779,2.779,0,0,1,2.505-.1l80.051,46.2c.641.372.56,1.02-.181,1.446Z" transform="translate(-340.6 -139.057)" fill="url(#linear-gradient-16)"/>
            <g id="Group_175" data-name="Group 175" transform="translate(0.013 3.145)">
              <path id="Path_537" data-name="Path 537" d="M508.4,186.9l-80.051-46.2a2.779,2.779,0,0,0-2.5.1l-81.608,47c-.6.347-.759.834-.46,1.206a1.412,1.412,0,0,1,.46-.4l81.608-47a2.779,2.779,0,0,1,2.5-.1L508.4,187.7a.958.958,0,0,1,.279.243A.673.673,0,0,0,508.4,186.9Z" transform="translate(-336.785 -140.444)" fill="#42e8e0"/>
              <path id="Path_538" data-name="Path 538" d="M516.8,164.5l-81.837,47.134c-3.249,1.873-8.164,2.072-10.975.444L342.5,165.045a3.439,3.439,0,0,1-1.857-2.36,3.115,3.115,0,0,0,1.857,3.163l81.493,47.036c2.811,1.628,7.726,1.428,10.975-.442L516.8,165.306c1.968-1.133,2.865-2.618,2.652-3.974A4.85,4.85,0,0,1,516.8,164.5Z" transform="translate(-340.608 -113.978)" fill="#42e8e0"/>
            </g>
            <path id="Path_539" data-name="Path 539" d="M428.346,146.973a2.791,2.791,0,0,0-2.507.1l-77.82,44.821-3.963-2.294c-.642-.372-.56-1.018.181-1.446l81.608-47a2.78,2.78,0,0,1,2.505-.1l80.051,46.2c.642.372.56,1.02-.181,1.446l-3.788,2.183Z" transform="translate(-336.776 -136.85)" fill="#251c72"/>
            <path id="Path_540" data-name="Path 540" d="M508.22,188.7c.741-.426.823-1.075.181-1.446l-80.051-46.2a2.78,2.78,0,0,0-2.505.1l-81.608,47c-.741.428-.823,1.075-.181,1.446L424.1,235.8a2.779,2.779,0,0,0,2.505-.1Z" transform="translate(-336.776 -136.85)" fill="#42e8e0" opacity="0.7"/>
          </g>
        </g>
        <g id="Group_180" data-name="Group 180" transform="translate(0 25.519)">
          <g id="Group_179" data-name="Group 179">
            <path id="Path_541" data-name="Path 541" d="M434.965,242.916,516.8,195.78c1.8-1.034,2.7-2.36,2.686-3.616l0,0,0-14.767-2.8,2.5-2.412-1.4c.263-.306.444-.571.394-.655-.143-.249-1.2-2.079-1.2-2.079l-57.734-34.085L437.391,131l-7.171-2.07-84.011,48.274.243,1.943-2.242,1.29-3.591-1.607-.016,14.681.009-.009a3.227,3.227,0,0,0,1.886,2.818l81.493,47.036C426.8,244.985,431.717,244.786,434.965,242.916Zm33.221-36.411L431.13,226.74l-3.187-.154L366.055,191.96,348.909,183.1l80.756-46.513a2.784,2.784,0,0,1,2.507-.1l78.589,45.356Z" transform="translate(-340.603 -126.366)" fill="url(#linear-gradient-17)"/>
            <path id="Path_542" data-name="Path 542" d="M434.965,242.916,516.8,195.78c1.8-1.034,2.7-2.36,2.686-3.616l0,0,0-14.767-2.8,2.5-2.412-1.4c.263-.306.444-.571.394-.655-.143-.249-1.2-2.079-1.2-2.079l-57.734-34.085L437.391,131l-7.171-2.07-84.011,48.274.243,1.943-2.242,1.29-3.591-1.607-.016,14.681.009-.009a3.227,3.227,0,0,0,1.886,2.818l81.493,47.036C426.8,244.985,431.717,244.786,434.965,242.916Zm33.221-36.411L431.13,226.74l-3.187-.154L366.055,191.96,348.909,183.1l80.756-46.513a2.784,2.784,0,0,1,2.507-.1l78.589,45.356Z" transform="translate(-340.603 -126.366)" fill="url(#linear-gradient-18)"/>
            <path id="Path_543" data-name="Path 543" d="M379.623,217.362l.009-17.81,2.058.1,37.057-20.235,42.575-24.661-1.412-.816c1.317-.759,8.778-2.838,10.147-3.627l0,13.693v1.075l0,0c.016,1.256-.891,2.582-2.686,3.616l-81.837,47.136A12.643,12.643,0,0,1,379.623,217.362Z" transform="translate(-291.164 -99.277)" fill="#0f054c" opacity="0.6"/>
            <path id="Path_544" data-name="Path 544" d="M434.969,229.408l81.837-47.134c3.251-1.873,3.607-4.709.8-6.336L436.109,128.9c-2.811-1.628-7.726-1.428-10.975.444L343.3,176.48c-3.251,1.873-3.607,4.709-.8,6.334l81.493,47.038C426.805,231.478,431.72,231.28,434.969,229.408Zm-4.536-2.757a2.779,2.779,0,0,1-2.505.1l-80.049-46.2c-.642-.372-.56-1.02.181-1.446l81.608-47a2.779,2.779,0,0,1,2.505-.1l80.051,46.2c.641.372.56,1.018-.181,1.446Z" transform="translate(-340.6 -127.8)" fill="url(#linear-gradient-19)"/>
            <path id="Path_545" data-name="Path 545" d="M434.969,229.408l81.837-47.134c3.251-1.873,3.607-4.709.8-6.336L436.109,128.9c-2.811-1.628-7.726-1.428-10.975.444L343.3,176.48c-3.251,1.873-3.607,4.709-.8,6.334l81.493,47.038C426.805,231.478,431.72,231.28,434.969,229.408Zm-4.536-2.757a2.779,2.779,0,0,1-2.505.1l-80.049-46.2c-.642-.372-.56-1.02.181-1.446l81.608-47a2.779,2.779,0,0,1,2.505-.1l80.051,46.2c.641.372.56,1.018-.181,1.446Z" transform="translate(-340.6 -127.8)" fill="url(#linear-gradient-20)"/>
            <g id="Group_178" data-name="Group 178" transform="translate(0.013 3.146)">
              <path id="Path_546" data-name="Path 546" d="M508.4,175.642l-80.051-46.2a2.786,2.786,0,0,0-2.5.1l-81.608,47c-.6.345-.759.834-.46,1.2a1.433,1.433,0,0,1,.46-.4l81.608-47a2.779,2.779,0,0,1,2.5-.1l80.051,46.2a.987.987,0,0,1,.279.24A.671.671,0,0,0,508.4,175.642Z" transform="translate(-336.785 -129.188)" fill="#42e8e0"/>
              <path id="Path_547" data-name="Path 547" d="M516.8,153.249l-81.837,47.134c-3.249,1.873-8.164,2.07-10.975.444L342.5,153.788a3.43,3.43,0,0,1-1.857-2.36,3.115,3.115,0,0,0,1.857,3.163l81.493,47.038c2.811,1.625,7.726,1.428,10.975-.444L516.8,154.051c1.968-1.133,2.865-2.618,2.652-3.976A4.853,4.853,0,0,1,516.8,153.249Z" transform="translate(-340.608 -102.723)" fill="#42e8e0"/>
            </g>
            <path id="Path_548" data-name="Path 548" d="M428.346,135.715a2.784,2.784,0,0,0-2.507.1l-77.82,44.821-3.963-2.294c-.642-.372-.56-1.02.181-1.446l81.608-47a2.78,2.78,0,0,1,2.505-.1L508.4,176c.642.372.56,1.018-.181,1.446l-3.788,2.181Z" transform="translate(-336.776 -125.593)" fill="#251c72"/>
            <path id="Path_549" data-name="Path 549" d="M508.22,177.442c.741-.428.823-1.075.181-1.446l-80.051-46.2a2.78,2.78,0,0,0-2.505.1l-81.608,47c-.741.426-.823,1.075-.181,1.446l80.049,46.2a2.779,2.779,0,0,0,2.505-.1Z" transform="translate(-336.776 -125.593)" fill="#42e8e0" opacity="0.7"/>
          </g>
        </g>
        <g id="Group_183" data-name="Group 183">
          <g id="Group_182" data-name="Group 182">
            <path id="Path_550" data-name="Path 550" d="M434.965,231.659,516.8,184.525c1.8-1.034,2.7-2.362,2.686-3.616l0,0,0-14.767-2.8,2.5-2.412-1.4c.263-.306.444-.574.394-.657-.143-.249-1.2-2.079-1.2-2.079l-57.734-34.082-18.352-10.687-7.171-2.07-84.011,48.276.243,1.941-2.242,1.292-3.591-1.607-.016,14.681.009-.009a3.221,3.221,0,0,0,1.886,2.816L423.991,232.1C426.8,233.728,431.717,233.531,434.965,231.659Zm33.221-36.408L431.13,215.486l-3.187-.156L366.055,180.7l-17.145-8.855,80.756-46.515a2.791,2.791,0,0,1,2.507-.1l78.589,45.356Z" transform="translate(-340.603 -115.11)" fill="url(#linear-gradient-21)"/>
            <path id="Path_551" data-name="Path 551" d="M434.965,231.659,516.8,184.525c1.8-1.034,2.7-2.362,2.686-3.616l0,0,0-14.767-2.8,2.5-2.412-1.4c.263-.306.444-.574.394-.657-.143-.249-1.2-2.079-1.2-2.079l-57.734-34.082-18.352-10.687-7.171-2.07-84.011,48.276.243,1.941-2.242,1.292-3.591-1.607-.016,14.681.009-.009a3.221,3.221,0,0,0,1.886,2.816L423.991,232.1C426.8,233.728,431.717,233.531,434.965,231.659Zm33.221-36.408L431.13,215.486l-3.187-.156L366.055,180.7l-17.145-8.855,80.756-46.515a2.791,2.791,0,0,1,2.507-.1l78.589,45.356Z" transform="translate(-340.603 -115.11)" fill="url(#linear-gradient-22)"/>
            <path id="Path_552" data-name="Path 552" d="M379.623,206.105l.009-17.81,2.058.1,37.057-20.235L461.322,143.5l-1.412-.818c1.317-.757,8.778-2.836,10.147-3.625l0,13.691v1.077l0,0c.016,1.254-.891,2.582-2.686,3.616l-81.837,47.134A12.645,12.645,0,0,1,379.623,206.105Z" transform="translate(-291.164 -88.02)" fill="#0f054c" opacity="0.6"/>
            <path id="Path_553" data-name="Path 553" d="M434.969,218.153l81.837-47.136c3.251-1.87,3.607-4.706.8-6.334l-81.493-47.038c-2.811-1.625-7.726-1.428-10.975.444L343.3,165.224c-3.251,1.87-3.607,4.706-.8,6.334l81.493,47.036C426.805,220.222,431.72,220.023,434.969,218.153Zm-4.536-2.757a2.786,2.786,0,0,1-2.505.1l-80.049-46.2c-.642-.37-.56-1.018.181-1.446l81.608-47a2.794,2.794,0,0,1,2.505-.1l80.051,46.2c.641.372.56,1.02-.181,1.446Z" transform="translate(-340.6 -116.544)" fill="url(#linear-gradient-23)"/>
            <path id="Path_554" data-name="Path 554" d="M434.969,218.153l81.837-47.136c3.251-1.87,3.607-4.706.8-6.334l-81.493-47.038c-2.811-1.625-7.726-1.428-10.975.444L343.3,165.224c-3.251,1.87-3.607,4.706-.8,6.334l81.493,47.036C426.805,220.222,431.72,220.023,434.969,218.153Zm-4.536-2.757a2.786,2.786,0,0,1-2.505.1l-80.049-46.2c-.642-.37-.56-1.018.181-1.446l81.608-47a2.794,2.794,0,0,1,2.505-.1l80.051,46.2c.641.372.56,1.02-.181,1.446Z" transform="translate(-340.6 -116.544)" fill="url(#linear-gradient-24)"/>
            <g id="Group_181" data-name="Group 181" transform="translate(0.013 3.146)">
              <path id="Path_555" data-name="Path 555" d="M508.4,164.384l-80.051-46.2a2.787,2.787,0,0,0-2.5.1l-81.608,47c-.6.347-.759.834-.46,1.206a1.411,1.411,0,0,1,.46-.4l81.608-47a2.794,2.794,0,0,1,2.5-.1l80.051,46.2a.991.991,0,0,1,.279.243A.673.673,0,0,0,508.4,164.384Z" transform="translate(-336.785 -117.931)" fill="#42e8e0"/>
              <path id="Path_556" data-name="Path 556" d="M516.8,141.991l-81.837,47.136c-3.249,1.87-8.164,2.07-10.975.442L342.5,142.532a3.434,3.434,0,0,1-1.857-2.36,3.115,3.115,0,0,0,1.857,3.163l81.493,47.036c2.811,1.628,7.726,1.428,10.975-.442L516.8,142.793c1.968-1.131,2.865-2.618,2.652-3.974A4.85,4.85,0,0,1,516.8,141.991Z" transform="translate(-340.608 -91.466)" fill="#42e8e0"/>
            </g>
            <path id="Path_557" data-name="Path 557" d="M428.346,124.459a2.791,2.791,0,0,0-2.507.1l-77.82,44.821-3.963-2.294c-.642-.37-.56-1.018.181-1.446l81.608-47a2.794,2.794,0,0,1,2.505-.1l80.051,46.2c.642.372.56,1.02-.181,1.446l-3.788,2.183Z" transform="translate(-336.776 -114.336)" fill="#251c72"/>
            <path id="Path_558" data-name="Path 558" d="M508.22,166.184c.741-.426.823-1.075.181-1.446l-80.051-46.2a2.794,2.794,0,0,0-2.505.1l-81.608,47c-.741.428-.823,1.077-.181,1.446l80.049,46.2a2.786,2.786,0,0,0,2.505-.1Z" transform="translate(-336.776 -114.336)" fill="#42e8e0" opacity="0.7"/>
          </g>
        </g>
      </g>
      <g id="Group_185" data-name="Group 185" transform="translate(158.259 64.809)">
        <path id="Path_559" data-name="Path 559" d="M413.08,148.452a2.952,2.952,0,0,1-1.335,2.312c-.737.424-1.333.079-1.333-.771a2.946,2.946,0,0,1,1.333-2.31C412.482,147.257,413.08,147.6,413.08,148.452Z" transform="translate(-410.412 -142.13)" fill="#42e8e0"/>
        <path id="Path_560" data-name="Path 560" d="M415.131,147.268a2.945,2.945,0,0,1-1.333,2.31c-.737.426-1.335.082-1.335-.769A2.952,2.952,0,0,1,413.8,146.5C414.535,146.073,415.131,146.418,415.131,147.268Z" transform="translate(-407.813 -143.63)" fill="#42e8e0"/>
        <path id="Path_561" data-name="Path 561" d="M417.183,146.085a2.951,2.951,0,0,1-1.335,2.31c-.737.426-1.333.082-1.333-.771a2.949,2.949,0,0,1,1.333-2.31C416.585,144.888,417.183,145.232,417.183,146.085Z" transform="translate(-405.213 -145.131)" fill="#42e8e0"/>
      </g>
      <g id="Group_186" data-name="Group 186" transform="translate(158.259 90.866)">
        <path id="Path_562" data-name="Path 562" d="M413.08,159.947a2.951,2.951,0,0,1-1.335,2.31c-.737.426-1.333.082-1.333-.771a2.949,2.949,0,0,1,1.333-2.31C412.482,158.75,413.08,159.094,413.08,159.947Z" transform="translate(-410.412 -153.624)" fill="#42e8e0"/>
        <path id="Path_563" data-name="Path 563" d="M415.131,158.761a2.949,2.949,0,0,1-1.333,2.312c-.737.424-1.335.079-1.335-.771a2.948,2.948,0,0,1,1.335-2.31C414.535,157.566,415.131,157.911,415.131,158.761Z" transform="translate(-407.813 -155.124)" fill="#42e8e0"/>
        <path id="Path_564" data-name="Path 564" d="M417.183,157.577a2.947,2.947,0,0,1-1.335,2.31c-.737.426-1.333.082-1.333-.768a2.95,2.95,0,0,1,1.333-2.312C416.585,156.382,417.183,156.727,417.183,157.577Z" transform="translate(-405.213 -156.625)" fill="#42e8e0"/>
      </g>
      <g id="Group_187" data-name="Group 187" transform="translate(158.259 141.131)">
        <path id="Path_565" data-name="Path 565" d="M413.08,182.118a2.952,2.952,0,0,1-1.335,2.312c-.737.424-1.333.079-1.333-.771a2.945,2.945,0,0,1,1.333-2.31C412.482,180.923,413.08,181.268,413.08,182.118Z" transform="translate(-410.412 -175.796)" fill="#706ec4"/>
        <path id="Path_566" data-name="Path 566" d="M415.131,180.934a2.945,2.945,0,0,1-1.333,2.31c-.737.426-1.335.082-1.335-.769a2.952,2.952,0,0,1,1.335-2.312C414.535,179.739,415.131,180.084,415.131,180.934Z" transform="translate(-407.813 -177.296)" fill="#706ec4"/>
        <path id="Path_567" data-name="Path 567" d="M417.183,179.749a2.952,2.952,0,0,1-1.335,2.312c-.737.426-1.333.079-1.333-.771a2.946,2.946,0,0,1,1.333-2.31C416.585,178.554,417.183,178.9,417.183,179.749Z" transform="translate(-405.213 -178.797)" fill="#706ec4"/>
      </g>
    </g>
  </g>
</svg>
