<svg xmlns="http://www.w3.org/2000/svg" width="2304.808" height="799.987" viewBox="0 0 2304.808 799.987">
  <g id="Group_4" data-name="Group 4" transform="translate(192.312 -3351.878)" opacity="0.344">
    <g id="Group_3" data-name="Group 3">
      <path id="Vector_2" data-name="Vector 2" d="M2219.534,77.053C2129.763,28.045,1896.641-47.778,1682.322,41c-267.9,110.977,124.407,422.7-255.176,435.424S984.653,172.479,680.7,522.374,271.433,241.045,0,368.279" transform="translate(-107.277 3522.039)" fill="none" stroke="#80f5d4" stroke-width="1"/>
      <path id="Vector_3" data-name="Vector 3" d="M2219.534,77.053C2129.763,28.045,1896.641-47.778,1682.322,41c-267.9,110.977,124.407,422.7-255.176,435.424S984.653,172.479,680.7,522.374,271.433,241.045,0,368.279" transform="translate(-135.551 3465.491)" fill="none" stroke="#80f5d4" stroke-width="1"/>
      <path id="Vector_4" data-name="Vector 4" d="M2219.534,77.053C2129.763,28.045,1896.641-47.778,1682.322,41c-267.9,110.977,124.407,422.7-255.176,435.424S984.653,172.479,680.7,522.374,271.433,241.045,0,368.279" transform="translate(-163.826 3408.942)" fill="none" stroke="#80f5d4" stroke-width="1"/>
      <path id="Vector_5" data-name="Vector 5" d="M2219.534,77.053C2129.763,28.045,1896.641-47.778,1682.322,41c-267.9,110.977,124.407,422.7-255.176,435.424S984.653,172.479,680.7,522.374,271.433,241.045,0,368.279" transform="translate(-192.1 3352.393)" fill="none" stroke="#80f5d4" stroke-width="1"/>
    </g>
  </g>
</svg>
