<svg xmlns="http://www.w3.org/2000/svg" width="54.892" height="31" viewBox="0 0 54.892 31">
  <g id="logo" transform="translate(0)">
    <path id="Path_69" data-name="Path 69" d="M580.78,567.5v-.163h-.106Z" transform="translate(-574.126 -566.402)" fill="#0efabd"/>
    <path id="Path_70" data-name="Path 70" d="M577.637,562.663l1.265,1.948h46.256l1.265-1.948Z" transform="translate(-571.697 -562.663)" fill="#0efabd"/>
    <path id="Path_71" data-name="Path 71" d="M667.463,586.957V609.75l1.948,3V588.9h24.432l1.265-1.948Z" transform="translate(-643.52 -582.088)" fill="#0efabd"/>
    <g id="Group_29" data-name="Group 29" transform="translate(0 1.156)">
      <path id="Path_72" data-name="Path 72" d="M603.127,588.095v13.76l1.948,3V586.147H592.888l1.265,1.948Z" transform="translate(-583.891 -582.597)" fill="#0efabd"/>
      <path id="Path_73" data-name="Path 73" d="M566.147,596.327h-16.2V571.44L548,568.432v29.843h19.407Z" transform="translate(-548 -568.432)" fill="#0efabd"/>
      <path id="Path_74" data-name="Path 74" d="M581.773,620.467h-8.34V607.721l-1.948-3.009v17.7h11.549Z" transform="translate(-566.778 -597.441)" fill="#0efabd"/>
    </g>
    <path id="Path_75" data-name="Path 75" d="M718.927,624.891l-2.51-.041a7.9,7.9,0,0,1-7.782-6.587h-1.968A9.847,9.847,0,0,0,716.4,626.8l2.51.041a2.232,2.232,0,0,1,0,4.464H703.9l1.265,1.948h13.75a4.18,4.18,0,0,0,.016-8.359Z" transform="translate(-672.652 -607.12)" fill="#0efabd"/>
    <path id="Path_76" data-name="Path 76" d="M731.016,620.022h-2.078a3.065,3.065,0,0,1-2.768-1.759H724.1a5.02,5.02,0,0,0,4.839,3.707h2.078a7.1,7.1,0,0,1,0,14.2H719.556l1.265,1.947h10.2a9.049,9.049,0,1,0,0-18.1Z" transform="translate(-685.173 -607.12)" fill="#0efabd"/>
  </g>
</svg>
