<svg xmlns="http://www.w3.org/2000/svg" width="165.144" height="31" viewBox="0 0 165.144 31">
  <g id="Capa_2" data-name="Capa 2" transform="translate(-548 -562.663)">
    <g id="Group_31" data-name="Group 31" transform="translate(548 562.663)">
      <g id="Group_28" data-name="Group 28" transform="translate(64.868 1.761)">
        <g id="Group_26" data-name="Group 26">
          <g id="Group_25" data-name="Group 25">
            <path id="Path_51" data-name="Path 51" d="M871.666,572.549h2.861v12.984h8.055v2.421H871.666Z" transform="translate(-871.666 -572.329)" fill="#fff"/>
            <path id="Path_52" data-name="Path 52" d="M959.966,582.519v5.436H957.1v-5.392l-6.052-10.013h3.059l4.512,7.5,4.556-7.5H966Z" transform="translate(-935.142 -572.329)" fill="#fff"/>
            <path id="Path_53" data-name="Path 53" d="M1080.475,572.549v15.405h-2.355l-8.495-10.432v10.432h-2.839V572.549h2.355l8.495,10.432V572.549Z" transform="translate(-1027.681 -572.329)" fill="#fff"/>
            <path id="Path_54" data-name="Path 54" d="M1183.177,579.374c0-4.6,3.521-7.923,8.253-7.923a7.8,7.8,0,0,1,6.1,2.575l-1.848,1.739a5.41,5.41,0,0,0-4.115-1.8,5.415,5.415,0,1,0,0,10.828,5.357,5.357,0,0,0,4.115-1.827l1.848,1.761a7.818,7.818,0,0,1-6.118,2.575C1186.7,587.3,1183.177,583.973,1183.177,579.374Z" transform="translate(-1120.745 -571.451)" fill="#fff"/>
            <path id="Path_55" data-name="Path 55" d="M1306.737,581.506l-2.443,2.509v3.939h-2.86V572.549h2.86v7.9l7.615-7.9h3.213l-6.47,6.888,6.867,8.517h-3.345Z" transform="translate(-1215.301 -572.329)" fill="#fff"/>
          </g>
        </g>
        <g id="Group_27" data-name="Group 27" transform="translate(0 22.962)">
          <path id="Path_56" data-name="Path 56" d="M874.655,686.307v.469h-1.2v3.945h-.576v-3.945h-1.209v-.469Z" transform="translate(-871.666 -686.25)" fill="#0efabd"/>
          <path id="Path_57" data-name="Path 57" d="M909.648,686.751v1.475h1.608v.475h-1.608v1.52h1.8v.475h-2.374v-4.42h2.374v.475Z" transform="translate(-901.575 -686.225)" fill="#0efabd"/>
          <path id="Path_58" data-name="Path 58" d="M943.45,687.121a2.118,2.118,0,0,1,.795-.807,2.193,2.193,0,0,1,1.118-.291,2.266,2.266,0,0,1,1.26.348,1.994,1.994,0,0,1,.785.988h-.69a1.386,1.386,0,0,0-.529-.614,1.531,1.531,0,0,0-.826-.215,1.61,1.61,0,0,0-.83.215,1.505,1.505,0,0,0-.576.611,2.15,2.15,0,0,0,0,1.849,1.5,1.5,0,0,0,.576.611,1.609,1.609,0,0,0,.83.215,1.548,1.548,0,0,0,.826-.212,1.366,1.366,0,0,0,.529-.611h.69a1.978,1.978,0,0,1-.785.978,2.281,2.281,0,0,1-1.26.345,2.211,2.211,0,0,1-1.118-.288,2.1,2.1,0,0,1-.795-.8,2.457,2.457,0,0,1,0-2.321Z" transform="translate(-928.831 -686.023)" fill="#0efabd"/>
          <path id="Path_59" data-name="Path 59" d="M990.98,686.307v4.413H990.4v-2h-2.248v2h-.576v-4.413h.576v1.938H990.4v-1.938Z" transform="translate(-964.349 -686.25)" fill="#0efabd"/>
          <path id="Path_60" data-name="Path 60" d="M1055.9,690.382a1.3,1.3,0,0,1-.542-.431,1.1,1.1,0,0,1-.2-.636h.614a.809.809,0,0,0,.257.523.919.919,0,0,0,.655.212.958.958,0,0,0,.649-.206.668.668,0,0,0,.237-.529.6.6,0,0,0-.139-.411.89.89,0,0,0-.348-.241,5.448,5.448,0,0,0-.564-.177,4.983,4.983,0,0,1-.7-.228,1.125,1.125,0,0,1-.45-.358,1.05,1.05,0,0,1-.187-.655,1.136,1.136,0,0,1,.184-.64,1.2,1.2,0,0,1,.516-.43,1.819,1.819,0,0,1,.763-.152,1.6,1.6,0,0,1,1.016.31,1.145,1.145,0,0,1,.446.823h-.633a.683.683,0,0,0-.266-.446.945.945,0,0,0-.621-.193.9.9,0,0,0-.589.187.637.637,0,0,0-.228.522.566.566,0,0,0,.136.393.878.878,0,0,0,.335.231q.2.079.56.181a5.292,5.292,0,0,1,.7.237,1.177,1.177,0,0,1,.456.361,1.05,1.05,0,0,1,.19.662,1.16,1.16,0,0,1-.171.608,1.253,1.253,0,0,1-.506.462,1.67,1.67,0,0,1-.791.177A1.886,1.886,0,0,1,1055.9,690.382Z" transform="translate(-1018.381 -686.023)" fill="#0efabd"/>
          <path id="Path_61" data-name="Path 61" d="M1093.31,690.275a2.106,2.106,0,0,1-.8-.8,2.44,2.44,0,0,1,0-2.324,2.108,2.108,0,0,1,.8-.8,2.337,2.337,0,0,1,2.248,0,2.093,2.093,0,0,1,.8.8,2.476,2.476,0,0,1,0,2.33,2.091,2.091,0,0,1-.8.8,2.335,2.335,0,0,1-2.248,0Zm1.953-.427a1.516,1.516,0,0,0,.583-.614,2.128,2.128,0,0,0,0-1.852,1.528,1.528,0,0,0-.579-.611,1.729,1.729,0,0,0-1.672,0,1.524,1.524,0,0,0-.579.611,2.126,2.126,0,0,0,0,1.852,1.513,1.513,0,0,0,.582.614,1.718,1.718,0,0,0,1.665,0Z" transform="translate(-1048.013 -686.049)" fill="#0efabd"/>
          <path id="Path_62" data-name="Path 62" d="M1137.652,690.252h1.545v.469h-2.121v-4.413h.576Z" transform="translate(-1083.883 -686.25)" fill="#0efabd"/>
          <path id="Path_63" data-name="Path 63" d="M1170.194,686.307V689.1a1.183,1.183,0,0,0,.288.874,1.26,1.26,0,0,0,1.6,0,1.183,1.183,0,0,0,.288-.874v-2.792h.576v2.786a1.8,1.8,0,0,1-.222.928,1.39,1.39,0,0,1-.6.56,2.036,2.036,0,0,1-1.69,0,1.37,1.37,0,0,1-.6-.56,1.823,1.823,0,0,1-.218-.928v-2.786Z" transform="translate(-1109.903 -686.25)" fill="#0efabd"/>
          <path id="Path_64" data-name="Path 64" d="M1211.592,686.307v.469h-1.2v3.945h-.576v-3.945H1208.6v-.469Z" transform="translate(-1141.075 -686.25)" fill="#0efabd"/>
          <path id="Path_65" data-name="Path 65" d="M1246.584,686.307v4.413h-.576v-4.413Z" transform="translate(-1170.983 -686.25)" fill="#0efabd"/>
          <path id="Path_66" data-name="Path 66" d="M1272.756,690.275a2.109,2.109,0,0,1-.8-.8,2.442,2.442,0,0,1,0-2.324,2.111,2.111,0,0,1,.8-.8,2.337,2.337,0,0,1,2.248,0,2.094,2.094,0,0,1,.8.8,2.478,2.478,0,0,1,0,2.33,2.093,2.093,0,0,1-.8.8,2.336,2.336,0,0,1-2.248,0Zm1.953-.427a1.516,1.516,0,0,0,.583-.614,2.128,2.128,0,0,0,0-1.852,1.528,1.528,0,0,0-.579-.611,1.729,1.729,0,0,0-1.672,0,1.524,1.524,0,0,0-.579.611,2.126,2.126,0,0,0,0,1.852,1.513,1.513,0,0,0,.582.614,1.718,1.718,0,0,0,1.665,0Z" transform="translate(-1191.495 -686.049)" fill="#0efabd"/>
          <path id="Path_67" data-name="Path 67" d="M1319.992,690.7h-.576l-2.317-3.514V690.7h-.576v-4.42h.576l2.317,3.508v-3.508h.576Z" transform="translate(-1227.365 -686.225)" fill="#0efabd"/>
          <path id="Path_68" data-name="Path 68" d="M1357.8,690.382a1.3,1.3,0,0,1-.542-.431,1.1,1.1,0,0,1-.2-.636h.614a.809.809,0,0,0,.257.523.919.919,0,0,0,.655.212.958.958,0,0,0,.649-.206.668.668,0,0,0,.237-.529.6.6,0,0,0-.139-.411.889.889,0,0,0-.348-.241,5.438,5.438,0,0,0-.564-.177,4.972,4.972,0,0,1-.7-.228,1.126,1.126,0,0,1-.45-.358,1.05,1.05,0,0,1-.187-.655,1.136,1.136,0,0,1,.184-.64,1.2,1.2,0,0,1,.516-.43,1.819,1.819,0,0,1,.763-.152,1.6,1.6,0,0,1,1.016.31,1.145,1.145,0,0,1,.446.823h-.633a.683.683,0,0,0-.266-.446.945.945,0,0,0-.621-.193.9.9,0,0,0-.589.187.637.637,0,0,0-.228.522.566.566,0,0,0,.136.393.878.878,0,0,0,.335.231q.2.079.56.181a5.292,5.292,0,0,1,.7.237,1.177,1.177,0,0,1,.456.361,1.049,1.049,0,0,1,.19.662,1.16,1.16,0,0,1-.171.608,1.253,1.253,0,0,1-.506.462,1.67,1.67,0,0,1-.791.177A1.886,1.886,0,0,1,1357.8,690.382Z" transform="translate(-1259.776 -686.023)" fill="#0efabd"/>
        </g>
      </g>
      <g id="Group_30" data-name="Group 30" transform="translate(0)">
        <path id="Path_69" data-name="Path 69" d="M580.78,567.5v-.163h-.106Z" transform="translate(-574.126 -566.402)" fill="#0efabd"/>
        <path id="Path_70" data-name="Path 70" d="M577.637,562.663l1.265,1.948h46.256l1.265-1.948Z" transform="translate(-571.697 -562.663)" fill="#0efabd"/>
        <path id="Path_71" data-name="Path 71" d="M667.463,586.957V609.75l1.948,3V588.9h24.432l1.265-1.948Z" transform="translate(-643.52 -582.088)" fill="#0efabd"/>
        <g id="Group_29" data-name="Group 29" transform="translate(0 1.156)">
          <path id="Path_72" data-name="Path 72" d="M603.127,588.095v13.76l1.948,3V586.147H592.888l1.265,1.948Z" transform="translate(-583.891 -582.597)" fill="#0efabd"/>
          <path id="Path_73" data-name="Path 73" d="M566.147,596.327h-16.2V571.44L548,568.432v29.843h19.407Z" transform="translate(-548 -568.432)" fill="#0efabd"/>
          <path id="Path_74" data-name="Path 74" d="M581.773,620.467h-8.34V607.721l-1.948-3.009v17.7h11.549Z" transform="translate(-566.778 -597.441)" fill="#0efabd"/>
        </g>
        <path id="Path_75" data-name="Path 75" d="M718.927,624.891l-2.51-.041a7.9,7.9,0,0,1-7.782-6.587h-1.968A9.847,9.847,0,0,0,716.4,626.8l2.51.041a2.232,2.232,0,0,1,0,4.464H703.9l1.265,1.948h13.75a4.18,4.18,0,0,0,.016-8.359Z" transform="translate(-672.652 -607.12)" fill="#0efabd"/>
        <path id="Path_76" data-name="Path 76" d="M731.016,620.022h-2.078a3.065,3.065,0,0,1-2.768-1.759H724.1a5.02,5.02,0,0,0,4.839,3.707h2.078a7.1,7.1,0,0,1,0,14.2H719.556l1.265,1.947h10.2a9.049,9.049,0,1,0,0-18.1Z" transform="translate(-685.173 -607.12)" fill="#0efabd"/>
      </g>
    </g>
  </g>
</svg>
